<svg xmlns="http://www.w3.org/2000/svg" width="160" height="160" viewBox="0 0 160 160"><defs><style>.a{opacity:0.31;}.b{fill:#cc164a;}</style></defs><g class="a" transform="translate(37.449 -364.491)"><g transform="translate(-37.449 454.756)"><path class="b" d="M-37.449,473.583l1-.135A78.676,78.676,0,0,0-13.916,518.9a79.136,79.136,0,0,0,73.137,21.426l.215.983a80.14,80.14,0,0,1-74.063-21.7A79.68,79.68,0,0,1-37.449,473.583Z" transform="translate(37.449 -473.448)"/></g><g transform="translate(-34.874 364.491)"><path class="b" d="M-14.126,387.354c31.341-30.484,82.337-30.484,113.677,0a76.763,76.763,0,0,1,0,110.567l-.711-.692a75.8,75.8,0,0,0,0-109.184c-30.949-30.1-81.306-30.1-112.255,0A76.905,76.905,0,0,0-33.4,420.683l-.964-.277A77.885,77.885,0,0,1-14.126,387.354Z" transform="translate(34.368 -364.491)"/></g><g transform="translate(25.339 372.181)"><path class="b" d="M37.717,375.7A72.234,72.234,0,0,1,105.942,395l-1.422,1.422a70.233,70.233,0,0,0-66.337-18.768Z" transform="translate(-37.717 -373.693)"/></g><g transform="translate(-30.507 379.731)"><path class="b" d="M-7.774,396.488A72.572,72.572,0,0,1,11.37,382.727l.893,1.8A70.693,70.693,0,0,0-11.2,492.431l-1.559,1.272A72.392,72.392,0,0,1-7.774,396.488Z" transform="translate(29.142 -382.727)"/></g><g transform="translate(-0.32 412.185)"><path class="b" d="M8.209,511.68A70.648,70.648,0,0,0,113.02,423.391l1.808-.883a73.055,73.055,0,0,1,5.715,47.235A72.662,72.662,0,0,1,7.03,513.31Z" transform="translate(-7.03 -422.508)"/></g><g transform="translate(-4.001 392.223)"><path class="b" d="M11.708,413.248a52.526,52.526,0,0,1,74.2,0,51.972,51.972,0,0,1,14.935,30.359l-2,.257a49.973,49.973,0,0,0-14.362-29.193A50.5,50.5,0,0,0,4.373,426.417L2.6,425.462A52.5,52.5,0,0,1,11.708,413.248Z" transform="translate(-2.602 -397.905)"/></g><g transform="translate(-10.249 441.978)"><path class="b" d="M-4.84,457.9l2.01.088a50.469,50.469,0,0,0,40.285,51.65l-.4,1.971A52.482,52.482,0,0,1-4.84,457.9Z" transform="translate(4.889 -457.901)"/></g><g transform="translate(47.931 453.892)"><path class="b" d="M64.754,512.681a50.471,50.471,0,0,0,43.8-40.493l1.976.383A52.484,52.484,0,0,1,64.981,514.68Z" transform="translate(-64.754 -472.188)"/></g><g transform="translate(-1.224 403.02)"><path class="b" d="M18.626,421.768a43.561,43.561,0,0,1,17.886-10.8l.3.962A42.478,42.478,0,0,0,12.426,473.45l-.874.5A43.554,43.554,0,0,1,18.626,421.768Z" transform="translate(-5.912 -410.971)"/></g><g transform="translate(11.477 401.01)"><path class="b" d="M51.843,408.662A43.453,43.453,0,1,1,21.124,482.84l.712-.711a42.447,42.447,0,1,0,30.007-72.462Z" transform="translate(-21.124 -408.662)"/></g><g transform="translate(15.19 417.473)"><path class="b" d="M33.467,436.233a27.029,27.029,0,0,1,38.225,38.225l-1.423-1.422a25.017,25.017,0,1,0-35.379,0l-1.423,1.422A27.061,27.061,0,0,1,33.467,436.233Z" transform="translate(-25.564 -428.329)"/></g><g transform="translate(28.779 431.035)"><path class="b" d="M45.753,448.519a13.448,13.448,0,0,1,19,0l-.711.711a12.428,12.428,0,1,0,3.561,7.387l1-.113a13.433,13.433,0,1,1-22.847-7.984Z" transform="translate(-41.825 -444.59)"/></g></g></svg>