<svg xmlns="http://www.w3.org/2000/svg" width="40" height="40" viewBox="0 0 40 40"><defs><style>.a{fill:none;}.b{fill:#fba91d;}</style></defs><path class="a" d="M0,0H40V40H0Z"/><path class="b" d="M21.413,29.783h8.37V6.348H6.348V29.783H18.065v-8.37H14.718V18.065h3.348V15.3c0-2.238.234-3.05.67-3.868a4.563,4.563,0,0,1,1.9-1.9,6.634,6.634,0,0,1,2.824-.638,10.809,10.809,0,0,1,2.139.134V12.2h-.839a6.07,6.07,0,0,0-2.548.275,1.217,1.217,0,0,0-.526.526c-.2.378-.275.753-.275,2.29v2.77H25.6l-.837,3.348H21.413ZM4.674,3H31.457a1.674,1.674,0,0,1,1.674,1.674V31.457a1.674,1.674,0,0,1-1.674,1.674H4.674A1.674,1.674,0,0,1,3,31.457V4.674A1.674,1.674,0,0,1,4.674,3Z" transform="translate(1.935 1.935)"/></svg>