<svg xmlns="http://www.w3.org/2000/svg" width="40" height="40" viewBox="0 0 40 40"><defs><style>.a{fill:none;}.b{fill:#fba91d;}</style></defs><path class="a" d="M0,0H40V40H0Z"/><path class="b" d="M18.6,13.622A4.981,4.981,0,1,0,23.584,18.6,4.981,4.981,0,0,0,18.6,13.622Zm0-3.321a8.3,8.3,0,1,1-8.3,8.3A8.3,8.3,0,0,1,18.6,10.3Zm10.792-.415a2.075,2.075,0,1,1-2.075-2.075A2.075,2.075,0,0,1,29.394,9.886ZM18.6,5.321c-4.108,0-4.778.012-6.689.1a9.02,9.02,0,0,0-2.985.551A4.792,4.792,0,0,0,7.135,7.135,4.8,4.8,0,0,0,5.966,8.928a9.007,9.007,0,0,0-.55,2.985c-.086,1.833-.1,2.474-.1,6.689,0,4.108.012,4.778.1,6.689a9.056,9.056,0,0,0,.55,2.984,5.162,5.162,0,0,0,2.959,2.96,9.038,9.038,0,0,0,2.988.553c1.833.086,2.474.1,6.689.1,4.108,0,4.778-.012,6.689-.1a9.073,9.073,0,0,0,2.984-.55,4.849,4.849,0,0,0,1.793-1.166,4.8,4.8,0,0,0,1.169-1.793,9.077,9.077,0,0,0,.551-2.988c.086-1.833.1-2.474.1-6.689,0-4.108-.012-4.778-.1-6.689a9.037,9.037,0,0,0-.551-2.985A4.833,4.833,0,0,0,30.07,7.135a4.788,4.788,0,0,0-1.793-1.169,9.016,9.016,0,0,0-2.985-.55C23.459,5.331,22.818,5.321,18.6,5.321ZM18.6,2c4.511,0,5.074.017,6.844.1a12.231,12.231,0,0,1,4.031.772,8.1,8.1,0,0,1,2.942,1.914,8.149,8.149,0,0,1,1.914,2.942,12.265,12.265,0,0,1,.772,4.031c.078,1.77.1,2.333.1,6.844s-.017,5.074-.1,6.844a12.274,12.274,0,0,1-.772,4.031,8.477,8.477,0,0,1-4.856,4.856,12.265,12.265,0,0,1-4.031.772c-1.77.078-2.333.1-6.844.1s-5.074-.017-6.844-.1a12.274,12.274,0,0,1-4.031-.772,8.477,8.477,0,0,1-4.856-4.856A12.222,12.222,0,0,1,2.1,25.446C2.022,23.676,2,23.114,2,18.6s.017-5.074.1-6.844a12.222,12.222,0,0,1,.772-4.031A8.1,8.1,0,0,1,4.786,4.786,8.13,8.13,0,0,1,7.728,2.872,12.222,12.222,0,0,1,11.759,2.1C13.529,2.022,14.092,2,18.6,2Z" transform="translate(1.397 1.397)"/></svg>