<svg xmlns="http://www.w3.org/2000/svg" width="160" height="160" viewBox="0 0 160 160"><defs><style>.a{opacity:0.31;}.b{fill:#fba91d;}</style></defs><g class="a" transform="translate(-23.251 72.979)"><g transform="translate(23.251 -72.979)"><path class="b" d="M103.251,87.021a80.091,80.091,0,0,1-80-80,80,80,0,1,1,160,0A80.09,80.09,0,0,1,103.251,87.021Zm0-159a79.089,79.089,0,0,0-79,79,79,79,0,0,0,158,0A79.089,79.089,0,0,0,103.251-71.978Z" transform="translate(-23.251 72.979)"/></g><g transform="translate(30.968 -65.262)"><path class="b" d="M103.251,79.3A72.364,72.364,0,0,1,30.968,7.022a72.283,72.283,0,1,1,144.566,0A72.365,72.365,0,0,1,103.251,79.3Zm0-142.564A70.361,70.361,0,0,0,32.97,7.022a70.281,70.281,0,0,0,140.562,0A70.361,70.361,0,0,0,103.251-63.26Z" transform="translate(-30.968 65.262)"/></g><g transform="translate(51.09 -45.14)"><path class="b" d="M103.187,59.119A52.22,52.22,0,0,1,51.026,6.958a52.161,52.161,0,1,1,104.322,0A52.221,52.221,0,0,1,103.187,59.119Zm0-102.323A50.218,50.218,0,0,0,53.026,6.958a50.161,50.161,0,0,0,100.322,0A50.218,50.218,0,0,0,103.187-43.2Z" transform="translate(-51.026 45.204)"/></g><g transform="translate(60.052 -36.179)"><path class="b" d="M103.187,50.157a43.247,43.247,0,0,1-43.2-43.2,43.2,43.2,0,1,1,86.4,0A43.249,43.249,0,0,1,103.187,50.157Zm0-85.4a42.247,42.247,0,0,0-42.2,42.2,42.2,42.2,0,0,0,84.4,0A42.248,42.248,0,0,0,103.187-35.243Z" transform="translate(-59.988 36.243)"/></g><g transform="translate(76.38 -19.85)"><path class="b" d="M103.187,33.829A26.871,26.871,0,1,1,130.058,6.958,26.9,26.9,0,0,1,103.187,33.829Zm0-51.743A24.872,24.872,0,1,0,128.058,6.958,24.9,24.9,0,0,0,103.187-17.914Z" transform="translate(-76.316 19.914)"/></g><g transform="translate(89.896 -6.334)"><path class="b" d="M103.187,20.312A13.355,13.355,0,1,1,116.542,6.958,13.37,13.37,0,0,1,103.187,20.312Zm0-25.71A12.355,12.355,0,1,0,115.542,6.958,12.369,12.369,0,0,0,103.187-5.4Z" transform="translate(-89.832 6.398)"/></g></g></svg>