<svg xmlns="http://www.w3.org/2000/svg" width="21.789" height="21.789" viewBox="0 0 21.789 21.789"><defs><style>.a{fill:none;stroke:#19204d;stroke-miterlimit:10;stroke-width:0.641px;}</style></defs><g transform="translate(-414.034 -264.364)"><path class="a" d="M424.415,280.467v4.852a.514.514,0,1,0,1.028,0v-4.852a5.093,5.093,0,0,1-1.028,0Z"/><path class="a" d="M425.443,270.05V265.2a.514.514,0,0,0-1.028,0v4.852c.169-.016.341-.025.514-.025S425.274,270.034,425.443,270.05Z"/><path class="a" d="M419.72,274.745h-4.852a.514.514,0,0,0,0,1.027h4.852c-.016-.169-.025-.34-.025-.513S419.7,274.914,419.72,274.745Z"/><path class="a" d="M434.989,274.745h-4.852a5.084,5.084,0,0,1,0,1.027h4.852a.514.514,0,1,0,0-1.027Z"/><path class="a" d="M420.884,278.577l-3.432,3.432a.514.514,0,0,0,.726.727l3.433-3.433A5.307,5.307,0,0,1,420.884,278.577Z"/><path class="a" d="M428.974,271.941l3.432-3.433a.514.514,0,1,0-.727-.726l-3.432,3.432A5.258,5.258,0,0,1,428.974,271.941Z"/><path class="a" d="M428.247,279.3l3.432,3.432a.514.514,0,0,0,.727-.727l-3.432-3.432A5.369,5.369,0,0,1,428.247,279.3Z"/><path class="a" d="M421.611,271.214l-3.433-3.432a.513.513,0,1,0-.726.726l3.432,3.433A5.258,5.258,0,0,1,421.611,271.214Z"/></g></svg>