<svg xmlns="http://www.w3.org/2000/svg" width="21.79" height="21.789" viewBox="0 0 21.79 21.789"><defs><style>.a{opacity:0.57;}.b{fill:#fff;stroke:#19204d;stroke-miterlimit:10;stroke-width:0.641px;}</style></defs><g class="a" transform="translate(-65.943 -233.625)"><path class="b" d="M76.325,249.729v4.852a.514.514,0,0,0,1.027,0v-4.852c-.169.016-.34.025-.513.025S76.494,249.745,76.325,249.729Z"/><path class="b" d="M77.352,239.312V234.46a.514.514,0,1,0-1.027,0v4.852a5.084,5.084,0,0,1,1.027,0Z"/><path class="b" d="M71.63,244.006H66.778a.514.514,0,1,0,0,1.028H71.63a5.127,5.127,0,0,1-.026-.514C71.6,244.347,71.613,244.176,71.63,244.006Z"/><path class="b" d="M86.9,244.006H82.047c.017.17.026.341.026.514a5.125,5.125,0,0,1-.026.514H86.9a.514.514,0,1,0,0-1.028Z"/><path class="b" d="M72.794,247.838l-3.432,3.433a.513.513,0,1,0,.726.726l3.433-3.432A5.2,5.2,0,0,1,72.794,247.838Z"/><path class="b" d="M80.883,241.2l3.433-3.432a.514.514,0,0,0-.727-.727l-3.432,3.432A5.306,5.306,0,0,1,80.883,241.2Z"/><path class="b" d="M80.157,248.565,83.589,252a.514.514,0,0,0,.727-.726l-3.433-3.433A5.251,5.251,0,0,1,80.157,248.565Z"/><path class="b" d="M73.52,240.475l-3.432-3.432a.514.514,0,0,0-.726.727l3.432,3.432A5.306,5.306,0,0,1,73.52,240.475Z"/></g></svg>