<svg xmlns="http://www.w3.org/2000/svg" width="44" height="44" viewBox="0 0 44 44"><defs><style>.a{fill:none;}.b{fill:#fba91d;}</style></defs><path class="a" d="M0,0H44V44H0Z"/><path class="b" d="M15.039,5.437c-2.446,0-3.69.29-4.836.971A5.672,5.672,0,0,0,7.965,8.9a11.587,11.587,0,0,0-.873,5.373v9.826a11.6,11.6,0,0,0,.873,5.375A5.669,5.669,0,0,0,10.2,31.958c1.144.68,2.39.971,4.836.971H17.7c2.446,0,3.69-.29,4.836-.971a5.672,5.672,0,0,0,2.238-2.488,11.59,11.59,0,0,0,.873-5.375V14.269a11.6,11.6,0,0,0-.873-5.375,5.672,5.672,0,0,0-2.238-2.488c-1.144-.679-2.39-.969-4.834-.969H15.038Zm0-3.437H17.7c3.113,0,4.783.478,6.295,1.376a8.956,8.956,0,0,1,3.506,3.9c.809,1.681,1.238,3.536,1.238,7V24.1c0,3.461-.43,5.317-1.238,7a8.956,8.956,0,0,1-3.506,3.9c-1.512.9-3.181,1.376-6.295,1.376H15.038c-3.113,0-4.783-.478-6.295-1.376a8.956,8.956,0,0,1-3.506-3.9C4.43,29.413,4,27.557,4,24.1V14.269c0-3.461.43-5.317,1.238-7a8.955,8.955,0,0,1,3.508-3.9C10.256,2.478,11.926,2,15.039,2Zm-.218,6.873h3.092v8.592H14.821Z" transform="translate(5.633 2.816)"/></svg>