<svg xmlns="http://www.w3.org/2000/svg" width="22.148" height="22.149" viewBox="0 0 22.148 22.149"><defs><style>.a{opacity:0.57;}.b{fill:#606060;stroke:#fba91d;}</style></defs><g class="a" transform="translate(-186.649 -99.199)"><path class="b" d="M197.209,115.482v4.852a.514.514,0,1,0,1.028,0v-4.852c-.169.016-.341.025-.514.025S197.378,115.5,197.209,115.482Z"/><path class="b" d="M198.237,105.065v-4.852a.514.514,0,1,0-1.028,0v4.852a5.094,5.094,0,0,1,1.028,0Z"/><path class="b" d="M192.514,109.76h-4.852a.514.514,0,0,0,0,1.027h4.852c-.016-.169-.025-.34-.025-.514S192.5,109.929,192.514,109.76Z"/><path class="b" d="M207.783,109.76h-4.852a5.084,5.084,0,0,1,0,1.027h4.852a.514.514,0,1,0,0-1.027Z"/><path class="b" d="M193.678,113.592l-3.432,3.432a.514.514,0,0,0,.726.727l3.433-3.433A5.251,5.251,0,0,1,193.678,113.592Z"/><path class="b" d="M201.768,106.955l3.432-3.432a.514.514,0,1,0-.727-.727l-3.432,3.433A5.307,5.307,0,0,1,201.768,106.955Z"/><path class="b" d="M201.041,114.318l3.432,3.433a.514.514,0,1,0,.727-.727l-3.432-3.432A5.307,5.307,0,0,1,201.041,114.318Z"/><path class="b" d="M194.4,106.229l-3.433-3.433a.514.514,0,0,0-.726.727l3.432,3.432A5.252,5.252,0,0,1,194.4,106.229Z"/></g></svg>