<svg xmlns="http://www.w3.org/2000/svg" width="160" height="160" viewBox="0 0 160 160"><defs><style>.a{opacity:0.31;}.b{fill:#19204d;}</style></defs><g class="a" transform="translate(-181.465 -321.496)"><path class="b" d="M211.335,453.352a77.4,77.4,0,0,0,8.822,3.087l96.251-96.251a77.409,77.409,0,0,0-3.087-8.822Z" transform="translate(22.127 22.127)"/><path class="b" d="M203.537,451.409a77.132,77.132,0,0,0,7.563,4.346L315.723,351.132a77.342,77.342,0,0,0-4.346-7.565Z" transform="translate(17.467 17.466)"/><path class="b" d="M196.867,446.986a78.307,78.307,0,0,0,6.461,5.448L312.4,343.359a78.262,78.262,0,0,0-5.448-6.462Z" transform="translate(13.48 13.48)"/><path class="b" d="M232.629,324.076a77.946,77.946,0,0,0-48.584,48.584Z" transform="translate(1.542 1.542)"/><path class="b" d="M305.84,384.86a78.3,78.3,0,0,0,1.486-13.395l-75.891,75.892a78.266,78.266,0,0,0,13.393-1.486Z" transform="translate(34.139 34.139)"/><path class="b" d="M220.459,452.387a78.176,78.176,0,0,0,10.516,1.392l82.773-82.773a78.158,78.158,0,0,0-1.392-10.516Z" transform="translate(27.58 27.58)"/><path class="b" d="M186.645,431.3a77.5,77.5,0,0,0,4.346,7.563l107.84-107.84a77.314,77.314,0,0,0-7.563-4.346Z" transform="translate(3.096 3.096)"/><path class="b" d="M182.951,383.992a78.306,78.306,0,0,0-1.486,13.395L257.356,321.5a78.309,78.309,0,0,0-13.395,1.486Z" transform="translate(0)"/><path class="b" d="M245.947,434.562a77.956,77.956,0,0,0,48.584-48.584Z" transform="translate(42.812 42.812)"/><path class="b" d="M183.3,419.581a78.134,78.134,0,0,0,3.087,8.822L288.373,326.416a78.024,78.024,0,0,0-8.822-3.087Z" transform="translate(1.095 1.095)"/><path class="b" d="M181.55,404.354a78.459,78.459,0,0,0,1.393,10.517l91.9-91.9a78.2,78.2,0,0,0-10.517-1.393Z" transform="translate(0.051 0.051)"/><path class="b" d="M191.218,440.322a78.559,78.559,0,0,0,5.446,6.462L306.754,336.7a78.26,78.26,0,0,0-6.462-5.446Z" transform="translate(5.829 5.829)"/></g></svg>