<svg xmlns="http://www.w3.org/2000/svg" width="331.274" height="235.291" viewBox="0 0 331.274 235.291"><defs><style>.a{fill:#f8dcbe;}.a,.b,.c,.d,.e,.f,.g,.h{fill-rule:evenodd;}.b{fill:#e4bc9d;}.c{fill:#d2a98c;}.d{fill:#eccbaf;}.e{fill:#dcb091;}.f{fill:#005e7c;}.g{fill:#f89646;}.h{fill:#ec7d2b;}</style></defs><path class="a" d="M321.98,657.316H268.167c.413-3.232.963-6.48,1.616-9.78l.361-1.736a146.769,146.769,0,0,1,8.886-27.6c1.1-2.527,2.268-5.071,3.54-7.6,14.609-1.2,28.737-.843,28.737-.843a25.461,25.461,0,0,1,4.451,6.7c4.554,9.469,5.861,22.755,6.187,31.556C322.152,653.551,321.98,657.316,321.98,657.316Z" transform="translate(-267.005 -553.917)"/><path class="b" d="M306.273,678.587H305.19a3.058,3.058,0,0,1-2.922-2.165l-10.209-33.532h0l-8.026-26.348h13.32l1.306,7.665,8.989,52.765A1.4,1.4,0,0,1,306.273,678.587Z" transform="translate(-10.18 -443.296)"/><path class="c" d="M292.059,642.891l-8.026-26.348h13.32l1.306,7.665A23.674,23.674,0,0,0,292.059,642.891Z" transform="translate(-10.18 -443.296)"/><path class="a" d="M590.488,615.261V668.61H270.894a148.337,148.337,0,0,1-2.612-35.817q.258-5.492.979-11.1c.413-3.232.963-6.48,1.616-9.781h.361c2.75.017,5.723.035,8.886.051,10.484.052,23.133.155,36.729.345,2.045.035,4.108.067,6.187.086.894.016,1.788.035,2.7.051,11.962.189,24.44.447,36.729.791,2.974.1,5.93.189,8.868.275,13.011.429,25.541.962,36.729,1.616,3.076.189,6.032.378,8.886.584,2.354.172,4.658.344,6.84.533,7.339.62,15.4.946,23.908,1.066,1.959.034,3.953.052,5.981.068q4.382,0,8.868-.052c11.979-.12,24.457-.55,36.729-1.066,1.5-.068,2.991-.12,4.469-.206l2.888-.12,1.529-.069c2.183-.1,4.366-.206,6.531-.309l1.942-.1c9.917-.481,19.473-.962,28.256-1.341q4.588-.206,8.868-.361c6.514-.24,12.443-.378,17.582-.378,1.134,0,2.234,0,3.3.034h0c3.386.052,6.376.172,8.852.413A22.661,22.661,0,0,1,590.488,615.261Z" transform="translate(-268.099 -518.291)"/><path class="d" d="M300.206,652.088s-1.633-31.711-4.864-42.057l-9.711,42.057Z" transform="translate(15.687 -548.69)"/><path class="a" d="M293.189,609.759s37.863-.962,53.71,5.5c0,0,.326,34.3-9.711,42.057H282.516S280.9,622.7,293.189,609.759Z" transform="translate(-35.871 -553.917)"/><path class="a" d="M289.292,609.759s37.863-.962,53.71,5.5c0,0,.326,34.3-9.694,42.057H278.619S277,622.7,289.292,609.759Z" transform="translate(-98.951 -553.917)"/><path class="e" d="M590.488,617.007v28.05a3.891,3.891,0,0,1-3.884,3.885H270.894a148.338,148.338,0,0,1-2.612-35.817H586.6A3.879,3.879,0,0,1,590.488,617.007Z" transform="translate(-268.099 -498.622)"/><path class="f" d="M551.128,756.781V615.332h36.729V756.781ZM323.106,720.963V615.332h36.729V756.781H323.106V720.963Zm45.6-105.632h36.729V756.781H368.7V615.332Zm82.344,0V756.781H414.318V615.332Zm45.6,0V756.781H459.916V615.332Zm45.615,0V756.781H505.53V615.332Zm54.483,141.449V613.217a6.749,6.749,0,0,0-6.669-6.755H323.106l-.1.086c-2.819,2.785-5.637,5.706-8.422,8.783l-.361.394V756.781H277.492V670.743a146.775,146.775,0,0,0-8.886,27.6v58.437h-.344c.121.584.241,1.169.344,1.736.6,2.87,1.255,5.671,1.976,8.422q1.727,6.6,3.867,12.77H587.719a9.022,9.022,0,0,0,9.023-9.023Z" transform="translate(-265.467 -606.462)"/><path class="g" d="M317.484,640.971c-6.016-.378-33.154-3.026-33.154-3.026s9.075-30.146,15.726-31.195a7.343,7.343,0,0,1,6.789,2.509c3.386,3.61,2.87,10,5.311,11.653a32.628,32.628,0,0,1,5,4.107l.224.207.121.137C325.012,633.151,324.428,641.4,317.484,640.971Z" transform="translate(-5.373 -603.364)"/><path class="h" d="M300.782,622.566c-2.681-2.32-13.148.431-15.021-1.322-1.942-1.805,3.42-3.678,4.864-6.617,1.427-2.939-.171-7.821-.171-7.821h.017c3.386,3.61,2.87,10,5.311,11.653A32.634,32.634,0,0,1,300.782,622.566Z" transform="translate(11.002 -600.91)"/><path class="g" d="M301.892,643.4c3.283-5.071,17.29-28.462,17.29-28.462s-29.631-10.622-34.443-5.9a7.309,7.309,0,0,0-2.011,6.943c.877,4.864,6.325,8.267,6.2,11.206a33.708,33.708,0,0,0,.327,6.463l.034.292.035.19C291.133,644.792,298.111,649.243,301.892,643.4Z" transform="translate(-34.09 -584.311)"/><path class="h" d="M289.1,625.974c-.258-3.54,8.163-10.313,7.871-12.874-.292-2.629-4.984.568-8.215-.017-3.214-.6-6.187-4.778-6.187-4.778h0c.877,4.864,6.325,8.267,6.2,11.206A33.708,33.708,0,0,0,289.1,625.974Z" transform="translate(-33.927 -576.629)"/><path class="g" d="M286.663,609.774s-4.314,10.9-.894,21.467c0,0,.91-1.135,1.667-1.891l2.509,1.891s-3.162-15.469-1.787-20.3C289.516,606.131,286.663,609.774,286.663,609.774Z" transform="translate(-3.426 -574.248)"/><path class="g" d="M284.8,610.371s5.861,9.384,15.812,12.7c0,0-.343-1.322-.5-2.337l2.836-.842s-13.526-6.273-16.431-10S284.8,610.371,284.8,610.371Z" transform="translate(-1.649 -575.944)"/><path class="h" d="M284.114,614.662c0-3.627,2.6-7.786,6.548-6.548,3.455,1.065,6.548,2.921,6.548,6.548,0,3.61-2.716,7.287-6.548,6.549C287.122,620.506,284.114,618.272,284.114,614.662Z" transform="translate(-8.869 -583.329)"/></svg>