<svg xmlns="http://www.w3.org/2000/svg" width="221.075" height="399.391" viewBox="0 0 221.075 399.391"><defs><style>.a,.e{fill:#d0a485;}.a,.b,.c,.d,.f,.g,.h,.i,.j,.k,.l,.m,.n,.o{fill-rule:evenodd;}.b{fill:#005e7c;}.c{fill:#e4bc9d;}.d{fill:#9f795f;}.f{fill:#2b478a;}.g{fill:#ffb17d;}.h{fill:#ec965d;}.i{fill:#014960;}.j{fill:#223d75;}.k{fill:#fba91d;}.l{fill:#ffcfaf;}.m{fill:#e99a14;}.n{fill:#1ca9c5;}.o{fill:#1389a1;}</style></defs><path class="a" d="M300.333,718.925c1.083-26.262,3.42-49.1,6.2-65.036,4.451-25.4,8.456-40.011,8.507-40.167.585-2.234,9.058-11.275,27.895-11,18.854.292,17.067,12.134,17.067,12.134a4.312,4.312,0,0,1-.137,1.049c-.189.619-17.479,62.476-16.723,142.327,0,1.134-.361,2.973-.447,4.262,0,0-43.157,1.2-43.175.086C298,755.6,298.752,736.267,300.333,718.925Z" transform="translate(-138.977 -502.99)"/><path class="b" d="M299.307,757.854c.017,1.1.619,1.994,1.341,1.994h.017c.722-.018,1.307-.91,1.307-1.994H339.4c0,1.1.6,1.994,1.324,1.994h.017c.739-.018,1.323-.945,1.306-2.062a553.566,553.566,0,0,1,3.111-63.043c4.984-46.989,14.179-78.389,14.3-78.837a3.618,3.618,0,0,0,.137-1.049s1.788-11.842-17.05-12.134c-18.837-.275-27.31,8.766-27.895,11-.051.121-2.32,8.387-5.328,23.272-1,4.915-2.08,10.57-3.18,16.895-2.8,15.932-5.138,38.774-6.221,65.036C298.344,736.267,297.794,750.859,299.307,757.854Z" transform="translate(-143.451 -502.99)"/><path class="b" d="M299.307,725.57c.017,1.1.619,1.994,1.341,1.994h.017c.722-.018,1.307-.91,1.307-1.994H339.4c0,1.1.6,1.994,1.324,1.994h.017c.739-.018,1.323-.945,1.306-2.062a553.564,553.564,0,0,1,3.111-63.043c-6.188-29.819-30.095-52.627-35.836-57.748-1,4.915-2.08,10.57-3.18,16.895-2.8,15.932-5.138,38.774-6.221,65.036C298.344,703.983,297.794,718.576,299.307,725.57Z" transform="translate(-143.451 -470.707)"/><path class="a" d="M326.035,750.46c4.194,0,7.15.172,8.181,1.237h0c.017-1.048.069-3.025.172-6.72.138-4.383.344-11.189.653-18.871.533-13.458,1.461-31.968,2.853-43.741,1.633-13.663,11.292-69.247,11.343-69.419a3.059,3.059,0,0,0,.086-.721l.017-.035a7.051,7.051,0,0,0-1.633-5.071c-2.046-2.372-5.689-3.626-10.845-3.695-7.442-.121-12.461,1.771-15.365,3.351-3.455,1.908-4.985,4-5.174,4.658-.1.4-10.828,43.347-12.684,67.631-.172,2.269-.567,6.1-1.031,10.949-1.066,10.587-2.527,25.059-3.214,37.244-1.014,17.857.155,21.845,1.306,22.034,7.734,1.341,15.5,1.255,21.742,1.187,1.289-.018,2.475-.018,3.592-.018Zm8.353,2.56-.1-.068c-.017-.017-.051-.034-.069-.189H334.2a1,1,0,0,0-.292-.775c-1.186-1.2-5.723-1.151-11.446-1.082-6.274.069-14.059.155-21.845-1.186-1.238-.223-2.767-2.784-1.65-22.481.7-12.2,2.148-26.691,3.214-37.261.482-4.846.86-8.68,1.031-10.949l.206.018-.206-.018c1.856-24.165,12.6-67.374,12.7-67.717.481-1.8,6.943-8.525,20.951-8.317,5.294.084,9.058,1.374,11.171,3.866a7.254,7.254,0,0,1,1.719,5.38,2.521,2.521,0,0,1-.12.825c-.035.24-9.745,56.013-11.309,69.35-2.6,21.931-3.644,67.717-3.7,70.261v.206l-.12.086Z" transform="translate(-140.823 -498.552)"/><path class="c" d="M439.29,622.979H292.58s3.42-13.63,88.376-11.6C441.077,612.8,439.29,622.979,439.29,622.979Z" transform="translate(-237.905 -366.121)"/><path class="c" d="M325.232,752.292H322.07a409.031,409.031,0,0,1-21.536-115.927c-.481-14.352.172-23.048.5-23.581.224-.378,1.014-.584,2.028-.687a52.236,52.236,0,0,1,5.843-.051c1.307.051,3.765,1.236,3.713,2.543,0,.155-.275,3.507-.43,9.764C311.74,643.222,312.462,688.494,325.232,752.292Z" transform="translate(-111.92 -353.004)"/><path class="c" d="M297.021,752.3h-3.18c11.171-55.807,13.114-97.434,13.131-119.623h0c0-11.583-.516-17.857-.516-18.081-.035-1.306,2.406-2.491,3.712-2.543,1.341-.018,7.2-.378,7.889.738.189.326.515,3.782.619,9.746C319.037,643.366,316.717,694.927,297.021,752.3Z" transform="translate(-217.492 -353.01)"/><path class="d" d="M292.262,752.3c17-84.921,12.633-137.05,12.6-137.7-.034-1.306,2.407-2.491,3.713-2.543,1.341-.018,7.2-.378,7.889.738.893,1.462,4.331,65.672-21.037,139.508Z" transform="translate(-243.052 -353.01)"/><path class="d" d="M323.634,752.3c-17-84.921-12.633-137.05-12.616-137.7.052-1.306-2.389-2.491-3.712-2.543-1.324-.018-7.2-.378-7.871.738-.894,1.462-4.314,65.672,21.02,139.508Z" transform="translate(-137.649 -353.01)"/><rect class="e" width="152.701" height="7.873" rx="0.146" transform="translate(51.59 253.34)"/><path class="a" d="M312.617,614.588c0,.155-.275,3.507-.43,9.764,0,0-9.556,2.457-11.653,12.013-.481-14.352.172-23.048.5-23.581.67-.24,1.357-.481,2.028-.687a52.236,52.236,0,0,1,5.843-.051C310.211,612.1,312.669,613.282,312.617,614.588Z" transform="translate(-111.92 -353.004)"/><path class="a" d="M306.8,622.536v.017s-8.061.241-11.7,10.123c0-11.583-.516-17.857-.516-18.081-.035-1.306,2.406-2.491,3.712-2.543,1.341-.018,7.2-.378,7.889.738C306.365,613.116,306.692,616.572,306.8,622.536Z" transform="translate(-205.611 -353.01)"/><path class="f" d="M347.805,597.341a43.545,43.545,0,0,0-31.934,8.868c-18.27,14.127-23.185,32.14-19.319,43.071,3.867,10.914,2.939,17.084-2.887,33.36-4.468,12.478,4.847,24.887,14.334,31.229,9.5,6.342,94.254-12.478,95.938-15.262,1.7-2.767-.584-28.341-15.589-35.7C373.328,655.537,376.525,591.085,347.805,597.341Z" transform="translate(-238.991 -596.914)"/><path class="g" d="M313.942,662.083c-1.1,1.89-2.2,3.694-3.266,5.328-3.832,5.912-7.149,9.865-8.524,10.261-5.878,1.735-8.37,0-8.37,0-1.444-6.6-.654-14.936,1.306-23.65a153.445,153.445,0,0,1,4.744-16.276,277.184,277.184,0,0,1,15.847-36.23C338.794,607.7,325.835,641.629,313.942,662.083Z" transform="translate(-230.443 -522.457)"/><path class="h" d="M392.576,724.5l-6.944,6.186s-8.4-7.682-20.229-18.734c-10.123-9.469-22.739-21.4-34.769-33.136-21.535-21-41.18-41.421-41.232-45.975-.206-17.05,10.038-21.467,10.038-21.467s41.2,28.806,52.85,40.3a68.828,68.828,0,0,1,6.256,7.167c7.958,10.277,16.121,25.2,24.251,42.95C386.079,708.945,389.345,716.558,392.576,724.5Z" transform="translate(-289.399 -362.868)"/><path class="g" d="M300.012,634.766c.051.1,9.47,2.991,16.465-.378,6.583-3.162,10.02-7.373,9.694-11.327,0,0-4.967-5.585-8.078-22.927l-1.272.5L295.3,609.157s1.8,6.926,3.025,13.543C299.376,628.251,299.05,632.978,300.012,634.766Z" transform="translate(-193.827 -544.811)"/><path class="i" d="M358.546,658.844c-5.723,5.74-16.362,15.314-27.912,19.971-21.535-21-41.18-41.421-41.232-45.975-.206-17.05,10.038-21.467,10.038-21.467s41.2,28.806,52.85,40.3A68.828,68.828,0,0,1,358.546,658.844Z" transform="translate(-289.399 -362.868)"/><path class="g" d="M310.344,601.932c16.826-1.358,46.371-1.5,64.8,11.24,0,0-8.4,83.186,8.662,124.52,6.119,14.8-75.4.139-72.254-9.178,7.03-20.761-22.6-58.16-17.049-82.875a143.642,143.642,0,0,0,3.644-30.61A13.211,13.211,0,0,1,310.344,601.932Z" transform="translate(-218.149 -525.522)"/><path class="g" d="M441.244,666.076c-25.78,13.526-108.02,8.439-108.02,8.439,8.078,5.275,14.781,25.609,19.868,47.591,3.111,13.354,5.6,27.327,7.442,38.911,2.423,15.3,3.7,26.416,3.7,26.416l-13.784,4.04s-4.916-8.439-11.928-21.071c-4.675-8.422-10.3-18.7-16.019-29.563-17.359-32.948-35.766-71.428-32.346-80.436,7.339-19.352,118.8-49.515,118.8-49.515C452.417,593.461,460.048,656.244,441.244,666.076Z" transform="translate(-283.893 -419.909)"/><path class="b" d="M441.408,666.074c-19.593,10.278-71.739,9.813-95.68,9.006l-.035-.017c-5.929-.207-10.123-.43-11.652-.516l-.653-.034c8.078,5.275,14.781,25.609,19.868,47.591a73.072,73.072,0,0,1-17.617,13.921,67.49,67.49,0,0,1-19.49,7.579c-17.358-32.948-29.252-74.2-25.832-83.2,7.339-19.352,118.8-49.515,118.8-49.515,23.89-9.573,36.953,5.07,40.751,21.845C452.975,646.481,449.881,661.64,441.408,666.074Z" transform="translate(-284.057 -419.906)"/><path class="j" d="M388.7,642.64c-19.593,10.279-71.739,9.813-95.68,9.006l-.034-.017c52.37,1.633,78.717-35.68,78.717-35.68,11.069-4.177,19.369-6.2,25.454-6.652C400.267,623.047,397.174,638.206,388.7,642.64Z" transform="translate(-231.349 -396.473)"/><path class="h" d="M294.072,610.965c.172-.721,6.772-9.916,7.133-8.628.327,1.307-4.331,12.444-3.816,16.861C297.888,623.615,294.072,610.965,294.072,610.965Z" transform="translate(-213.753 -511.146)"/><path class="h" d="M295.3,608.687s1.237,4.812,2.629,11.464c12.426-2.646,17.342-13.183,18.888-19.989Z" transform="translate(-193.827 -544.342)"/><path class="k" d="M402.559,752.279c-8.7,4.5-35.1-9.04-42.435-16.345-7.373-7.287-34.649-10.914-39.221-12.185-4.572-1.255.344-7.614,1.736-10.037,1.392-2.441-13.681-58.883-13.681-58.883-7.339-.086-16.018-10.6-16.018-10.6.172-15.641,20.092-37.571,20.092-37.571s-1.152,38.963,16.568,36.523c17.7-2.423,41.266-41.593,41.266-41.593,2.389-.842,24.406,11.1,23.186,32.346-.069,1.031-.189,2.1-.361,3.162-4.52,27.809-4.056,51.339-4.348,54.9-.309,3.971,4.194,15.882,8.387,28.119C402.731,734.731,407.269,749.8,402.559,752.279Z" transform="translate(-232.077 -522.026)"/><path class="g" d="M310.6,650.7s29.631-4.95,26.279-23.357c-3.369-18.391-1.8-31.435-20.865-29.063-19.078,2.389-21.449,10.071-21.827,16.5C293.806,621.188,302.795,651.507,310.6,650.7Z" transform="translate(-212.129 -579.324)"/><path class="g" d="M336.591,650.163c-2.423,0-8.937-1.22-11.464-1.169-2.51.035-11.636,1.169-11.636,1.169H291.767c1.753-3.024,7.666-5.414,12-6.565,5.208-1.376,11.292-7.993,13.853-11.635s0-9.625,0-9.625L331.4,618.3s3.627,14.18,7.631,19.92C343.019,643.941,339.032,650.163,336.591,650.163Z" transform="translate(-251.065 -250.773)"/><path class="h" d="M312.014,628.161c-1.1,1.89-2.2,3.694-3.266,5.328a3.117,3.117,0,0,1-.877-.069c-7.132-1.547-13.165-10.793-14.712-13.32a153.434,153.434,0,0,1,4.744-16.276,9.626,9.626,0,0,1,2.423-.206C308.456,603.859,312.994,619.619,312.014,628.161Z" transform="translate(-228.516 -488.535)"/><path class="l" d="M293.414,615.066a12.048,12.048,0,1,1,12.048,12.048A12.051,12.051,0,0,1,293.414,615.066Z" transform="translate(-224.404 -498.111)"/><path class="h" d="M317.7,602.945s-24.818,6.84-22.394,20.16C297.751,636.426,317.7,602.945,317.7,602.945Z" transform="translate(-196.412 -499.293)"/><path class="f" d="M311.551,606.549a7.272,7.272,0,0,0-10.415-2.388c-3.9,2.716-7.854,6.6-7.837,11.361,0,9.419,7.717,16.173,17.067,13.319,0,0,3.97-3.815,2.234-8.146-1.736-4.348.6-11.877-.619-13.475A4.964,4.964,0,0,1,311.551,606.549Z" transform="translate(-226.282 -500.233)"/><path class="l" d="M298.323,619.486s-4.159,4.4-3.231,7.649,7.528.121,12.031-4.4c4.52-4.52,3.627-19.2,3.025-19.456-.619-.258-4.434-.172-5.053,1.478C304.493,606.407,302.242,617.286,298.323,619.486Z" transform="translate(-199.425 -495.674)"/><path class="m" d="M325.033,693.829c-13.63-4.04-27.6-48.554-27.6-49.241,0,0,6.48-38.225,18.751-41.352,1.788-.447,3.523,1.22,5.173,4.417-.069,1.031-.189,2.1-.361,3.162-4.52,27.809-4.056,51.339-4.348,54.9C316.337,669.68,320.84,681.591,325.033,693.829Z" transform="translate(-159.381 -495.75)"/><path class="l" d="M297.84,611.519s-3.145-4.383-2.286-5.122c.842-.756,1.375,1.031,1.77.946.412-.086.877-4.486,2.32-4.59,1.461-.119,4.572,4.108,3.248,7.288C301.552,613.22,297.84,611.519,297.84,611.519Z" transform="translate(-192.17 -502.435)"/><path class="n" d="M294.115,614.188s20.452,28.978,36.78,28.119c16.328-.877,26.056-23.8,22.756-28.841s-15.692-5.5-19.782-3.54C329.8,611.9,307.418,592.481,294.115,614.188Z" transform="translate(-213.057 -485.185)"/><path class="o" d="M294.126,607.229s9.075-5.243,14.558-1.857,4.932,9.624,10.037,11.962c5.105,2.32,23.168-3.884,23.168-3.884s-3.73,20.435-4.142,20.968C337.335,634.968,293.112,614.533,294.126,607.229Z" transform="translate(-213.155 -478.432)"/><path class="g" d="M335.107,689.556c-17.273-2.768-41.095-37.33-41.095-37.33l2.578-6.428s34.7,21.6,36.334,20.985h0a1.56,1.56,0,0,0,.6-.5c2.544-2.99,9.057-18.271,15.022-33.068,6.2-15.383,11.842-30.25,11.842-30.25C405.214,590.986,352.4,692.34,335.107,689.556Z" transform="translate(-214.708 -514.886)"/><path class="g" d="M310.45,632.672s-11.7-6.72-14.7-10.364c-1.427-1.752-2.6-7.3-2.6-9.35,0-2.544,2.629-9.332,3.4-9.659.774-.292,1.443,4.057.963,6.823a3.9,3.9,0,0,0,1.615,3.471c1.031.534,1.977,2.373,2.389,2.459,2.166.447-.567-5.483,1.048-6.342,1.6-.877,3.368,6.635,4.176,7.476a18.869,18.869,0,0,1,2.733,5.381c.344,1.374,3.249,4.09,3.249,4.09Z" transform="translate(-228.516 -493.77)"/><path class="h" d="M317.338,629.277c-2.08,3.4-3.334,12.941-1.478,17.031,1.856,4.073-3.953,9.8-3.953,9.8H294.633c0-6.118,6.394-4.365,7.322-9.453.928-5.1-1.049-22.12-1.049-22.12s.275-8.558,6.944-6.186C316.77,621.526,319.417,625.874,317.338,629.277Z" transform="translate(-204.672 -256.716)"/><path class="m" d="M330.481,650.27c-2.08,3.4-3.334,12.941-1.478,17.031,1.856,4.073-3.953,9.8-3.953,9.8H307.777c0-6.118,6.394-4.365,7.322-9.453.567-3.059.069-10.432-.413-15.812a16.1,16.1,0,0,0-5.139-10.45c-3.609-3.317-9.144-8.421-15.726-14.591,3.9-1.134,12.8-4.228,17.393-10.158,2.819,6.154,5.637,12.65,8.439,19.422a8.621,8.621,0,0,0,4.348,4.5C330.5,643.567,332.3,647.279,330.481,650.27Z" transform="translate(-217.816 -277.708)"/><path class="k" d="M336.591,675.043c-2.423,0-8.937-1.221-11.464-1.169-2.51.035-11.636,1.169-11.636,1.169H291.767c1.753-3.024,7.666-5.414,12-6.565,5.208-1.375,11.292-7.993,13.853-11.635s0-9.625,0-9.625-4.916-8.44-11.928-21.071c0,0,11.326,1.546,22.017-9.385,2.423,15.3,3.695,26.416,3.695,26.416s3.627,14.18,7.631,19.92C343.019,668.821,339.032,675.043,336.591,675.043Z" transform="translate(-251.065 -275.652)"/><path class="g" d="M364.548,640.114c-.464-1.513-11.567.825-12.736,0-1.152-.825,6.342.12,6.016-1.684-.327-1.788-9.024-1.582-10.193-1.685a18.36,18.36,0,0,0-5.895,1.272c-1.272.584-5.225.018-5.225.018s-21.484-31.092-27.413-32.57c-5.946-1.478-16.018,10.33-16.018,10.33s18.183,21.552,40.183,27.791c0,0,12.581,4.9,17.29,4.933C355.284,648.554,365.012,641.626,364.548,640.114Z" transform="translate(-229.746 -460.581)"/><path class="h" d="M318.724,607.517c-.361,11.635-18.854,28.169-22.412,31.246,2.544-2.99,9.057-18.271,15.022-33.068C315.527,602.739,318.879,602.79,318.724,607.517Z" transform="translate(-177.494 -487.365)"/><path class="k" d="M303.188,601.543s16.637,3.609,22.069,9.4c5.449,5.791,5.122,30.334,5.122,30.334s-8.7,8.9-33.257,1.805Z" transform="translate(-164.399 -521.987)"/><path class="f" d="M294.761,607.672s8.594,12.409,17.617,13.577c9.04,1.152,12.546,4.967,14.97,12.667,2.406,7.716,3.2-37.451-8.1-36.3C308,598.786,294.761,607.672,294.761,607.672Z" transform="translate(-202.601 -585.898)"/><path class="f" d="M314.7,598.579s-8.2,7.493-6.462,14.436c1.753,6.943-2.062,23.1-2.062,23.1s-17.857-19.336-11.137-29.992S314.7,598.579,314.7,598.579Z" transform="translate(-222.543 -576.806)"/><path class="j" d="M292.922,611.791l-.653-.034A1.234,1.234,0,0,1,292.922,611.791Z" transform="translate(-242.938 -357.15)"/><path class="j" d="M312.137,659.319A73.07,73.07,0,0,1,294.52,673.24c8.078-14.059-2.251-61.512-2.251-61.512C300.347,617,307.05,637.337,312.137,659.319Z" transform="translate(-242.938 -357.121)"/><path class="f" d="M307.276,651.857c-.138-.069-13.251-8.182-14.9-17.273a10.009,10.009,0,0,1,2.1-8.181c9.075-11.652,9.109-25.8,9.109-25.934l1.29,1.254a46.733,46.733,0,0,1-9.367,25.42c-1.891,2.423-2.87,4.537-2.337,7.407,1.633,8.972,14.128,17,14.248,17.084Z" transform="translate(-244.008 -539.388)"/></svg>