<svg xmlns="http://www.w3.org/2000/svg" width="40" height="40" viewBox="0 0 40 40"><defs><style>.a{fill:none;}.b{fill:#fba91d;}</style></defs><path class="a" d="M0,0H40V40H0Z"/><path class="b" d="M24.158,6.751a4.7,4.7,0,0,0-4.747,4.556l-.046,2.519a.952.952,0,0,1-.343.71,1,1,0,0,1-.77.223L15.7,14.42A19.361,19.361,0,0,1,6.021,9.941c-.979,5.3.933,8.965,5.538,11.8l2.86,1.757a.948.948,0,0,1,.056,1.589l-2.606,1.861a17.349,17.349,0,0,0,4.243-.21c7.724-1.507,12.859-7.187,12.859-16.557,0-.765-1.657-3.426-4.813-3.426Zm-8.021,4.5a7.847,7.847,0,0,1,5.04-7.137,8.156,8.156,0,0,1,8.686,1.769,6.431,6.431,0,0,0,4.369-1.032c-.548,2.624-.819,3.763-1.987,5.33,0,12.228-7.689,18.173-15.491,19.7C11.4,30.915,3.625,29.2,1.395,26.926c1.136-.086,5.753-.571,8.421-2.48C7.558,22.992-1.427,17.823,4.478,3.928a22.934,22.934,0,0,0,8.431,6.459,9.8,9.8,0,0,0,3.23.861Z" transform="translate(1.14 2.901)"/></svg>