<svg xmlns="http://www.w3.org/2000/svg" xmlns:xlink="http://www.w3.org/1999/xlink" width="229.001" height="48.001" viewBox="0 0 229.001 48.001"><defs><style>.a{fill:#fff;stroke:#707070;}.b{fill:#19204d;}.b,.c{font-size:24px;font-family:Poppins-Bold, Poppins;font-weight:700;}.c{fill:#fba91d;}.d{clip-path:url(#a);}.e,.h{fill:none;}.e{stroke:#19204d;}.f{clip-path:url(#b);}.g{stroke:none;}</style><clipPath id="a"><path class="a" d="M564-8393v-28h12v-7H564v-13h24v48H564Z" transform="translate(-488 8741)"/></clipPath><clipPath id="b"><path class="a" d="M0,0V28H12v7H0V48H24V0H0Z" transform="translate(0)"/></clipPath></defs><g transform="translate(-159.999 -64)"><text class="b" transform="translate(214 71)"><tspan x="0" y="25">health</tspan></text><text class="c" transform="translate(295 71)"><tspan x="0" y="25">atonic</tspan></text><g transform="translate(96 -236)"><g class="d"><g class="e" transform="translate(76 300)"><rect class="g" width="24" height="48" rx="1"/><rect class="h" x="0.5" y="0.5" width="23" height="47" rx="0.5"/></g><g class="e" transform="translate(80 304)"><rect class="g" width="16" height="40" rx="1"/><rect class="h" x="0.5" y="0.5" width="15" height="39" rx="0.5"/></g><g class="e" transform="translate(84 308)"><rect class="g" width="8" height="32" rx="1"/><rect class="h" x="0.5" y="0.5" width="7" height="31" rx="0.5"/></g></g><g class="f" transform="translate(63.999 336) rotate(-90)"><g class="e" transform="translate(0.001 0.001)"><rect class="g" width="24" height="48" rx="1"/><rect class="h" x="0.5" y="0.5" width="23" height="47" rx="0.5"/></g><g class="e" transform="translate(4.001 4.001)"><rect class="g" width="16" height="40" rx="1"/><rect class="h" x="0.5" y="0.5" width="15" height="39" rx="0.5"/></g><g class="e" transform="translate(8.001 8.001)"><rect class="g" width="8" height="32" rx="1"/><rect class="h" x="0.5" y="0.5" width="7" height="31" rx="0.5"/></g></g></g></g></svg>