<svg xmlns="http://www.w3.org/2000/svg" xmlns:xlink="http://www.w3.org/1999/xlink" width="21.407" height="22.828" viewBox="0 0 21.407 22.828"><defs><style>.a{fill:#fff;stroke:#707070;}.b{clip-path:url(#a);}.c{fill:none;}.d,.e{stroke:none;}.e{fill:#19204d;}</style><clipPath id="a"><rect class="a" width="14.614" height="17.05" transform="translate(514.154 71.926) rotate(16)"/></clipPath></defs><g class="b" transform="translate(-491.645 -142.128) rotate(8)"><g class="c" transform="translate(513.957 72.798)"><path class="d" d="M6.671,6.121a4,4,0,0,1,6.956,0L16.9,11.886a4,4,0,0,1-3.478,5.976H6.873A4,4,0,0,1,3.4,11.886Z"/><path class="e" d="M 10.14871311187744 5.097005844116211 C 9.055493354797363 5.097005844116211 8.080403327941895 5.66447639465332 7.540343284606934 6.614986419677734 L 4.264932632446289 12.37970638275146 C 3.731283187866211 13.31892585754395 3.73707389831543 14.43705558776855 4.280422210693359 15.37069606781006 C 4.823762893676758 16.30433654785156 5.793072700500488 16.86173629760742 6.873303413391113 16.86173629760742 L 13.42412376403809 16.86173629760742 C 14.50435256958008 16.86173629760742 15.47366333007813 16.30433654785156 16.01700210571289 15.37069606781006 C 16.56035232543945 14.43705558776855 16.56614303588867 13.31892585754395 16.03249359130859 12.37970638275146 L 12.75709342956543 6.614986419677734 C 12.21702289581299 5.66447639465332 11.24192333221436 5.097005844116211 10.14871311187744 5.097005844116211 M 10.14871311187744 4.097011566162109 C 11.50430107116699 4.097011566162109 12.85988807678223 4.771665573120117 13.62654304504395 6.120976448059082 L 16.90195274353027 11.88569641113281 C 18.41704368591309 14.55226612091064 16.49106216430664 17.86173629760742 13.42412376403809 17.86173629760742 L 6.873303413391113 17.86173629760742 C 3.806364059448242 17.86173629760742 1.880382537841797 14.55226612091064 3.395473480224609 11.88569641113281 L 6.670883178710938 6.120976448059082 C 7.437538146972656 4.771665573120117 8.793125152587891 4.097011566162109 10.14871311187744 4.097011566162109 Z"/></g></g></svg>