<svg xmlns="http://www.w3.org/2000/svg" width="508.184" height="464.106" viewBox="0 0 508.184 464.106"><defs><style>.a,.b,.d,.e{fill:#005e7c;}.b,.w{opacity:0.5;}.b,.c,.d,.f,.h,.n,.q,.s,.u,.v,.w,.x{mix-blend-mode:multiply;isolation:isolate;}.c,.g,.h,.i{fill:#52c4c8;}.e,.g,.h,.j{opacity:0;}.k,.s{fill:#110039;}.l{fill:#fba91d;}.m,.n,.w{fill:#f9ba96;}.n{opacity:0.49;}.o,.q{fill:#ebebeb;}.p{fill:#fff;}.r{fill:#1ca9c5;}.t,.u,.v,.x{fill:#c08570;}.u{opacity:0.7;}.v{opacity:0.43;}</style></defs><g transform="translate(-39.816 -63.879)"><g transform="translate(110.182 74.047)"><g transform="translate(176.884 142.774)"><path class="a" d="M381.673,388.71l-7.623,75.907a13.6,13.6,0,0,1-13.7,12.035H325.073a13.6,13.6,0,0,1-13.694-12.035l-1.31-13.033-6.315-62.874a1.335,1.335,0,0,1,.931-1.4c4.587-1.391,19.874-2.429,38.022-2.429,10,0,19.1.31,26.053.822a68.133,68.133,0,0,1,11.982,1.606A1.333,1.333,0,0,1,381.673,388.71Z" transform="translate(-244.859 -165.489)"/><path class="b" d="M303.755,388.6l7.623,75.907a13.6,13.6,0,0,0,13.7,12.035h35.282a13.6,13.6,0,0,0,13.7-12.035l1.308-13.033c-39.721,1.821-53.781-39.613-58.692-65.883a68.116,68.116,0,0,0-11.981,1.606A1.334,1.334,0,0,0,303.755,388.6Z" transform="translate(-244.859 -165.375)"/><path class="c" d="M379.876,389.626c0,1.646-15.826,2.968-35.687,3.049h-1.7c-.837,0-1.674,0-2.5-.014-19.482-.094-34.876-1.416-34.876-3.036,0-1.579,14.719-2.874,33.582-3.035,1.241-.014,2.509-.014,3.792-.014h.35C363.32,386.591,379.876,387.953,379.876,389.626Z" transform="translate(-244.64 -165.217)"/><path class="a" d="M373.548,259.3a15.408,15.408,0,0,0-4.709.783c-.431.135-.863.3-1.3.472a20.507,20.507,0,0,0-2.6,1.282c-.674.392-1.335.81-1.97,1.255-.364.256-.728.513-1.093.8a41.291,41.291,0,0,0-3.872,3.346c-2.024,1.943-3.914,4.034-5.83,6.058-4.074,4.291-8.459,8.325-14.044,10.524a1.631,1.631,0,0,1-.675.094c.486,5.033,1.349,10.052,2.334,15,1.4,7.016,3.037,13.978,4.291,21.021a147.123,147.123,0,0,1,2.213,20.926c.23,7.179-.944,37.091-1.025,41.665-.067,3.723-.055,7.461.081,11.185.067-.284.135-.553.2-.836a288.18,288.18,0,0,0,5.775-37q.506-5.545.782-11.1a2.049,2.049,0,0,1,2.024-2.024,1.9,1.9,0,0,1,.716.148,1.981,1.981,0,0,1,1.308,1.876c-.067,1.241-.135,2.5-.216,3.737-.216,3.4-.486,6.813-.836,10.213-.041.365-.067.742-.122,1.107a291.92,291.92,0,0,1-8.595,46.467c.23,1.714.5,3.414.824,5.114.364,2.051.824,4.088,1.349,6.1h-1.7c-.837,0-1.674,0-2.5-.014q-.767-3.015-1.294-6.071c-.23-1.228-.419-2.456-.594-3.684a1.863,1.863,0,0,1-.23-1.591v-.041a183.214,183.214,0,0,1-.9-28.658c.162-4.844.391-9.688.594-14.531a145.206,145.206,0,0,0-7.11-18.12,155.185,155.185,0,0,0-13.681-23.409c-.864-.013-7.34-9.633-9.755-12.386q-4.068-4.654-8.5-8.972c-1.794-1.754-3.629-3.454-5.518-5.127-.244-.217-.5-.445-.756-.661-1.362-1.188-2.753-2.348-4.155-3.495-.689-.553-1.377-1.093-2.079-1.633q-5.585-4.371-11.6-8.2a2.067,2.067,0,0,1-.728-2.779c.041-.067.094-.148.135-.2a2.051,2.051,0,0,1,2.631-.525c.189.121.391.242.58.377a150.124,150.124,0,0,1,15.3,11.254c.486.377.958.782,1.43,1.187.877.742,1.741,1.5,2.6,2.266,1.013.9,2.024,1.822,3.009,2.766q5.2,4.9,9.944,10.268-3.1-7.73-6.409-15.368c-.58-1.336-1.174-2.685-1.754-4.02-.176-.378-.351-.769-.527-1.147-.566-1.269-1.133-2.537-1.713-3.8-.176-.392-.351-.769-.541-1.161-.849-1.862-1.7-3.709-2.576-5.558-.162-.324-.311-.661-.472-.985-.945-1.983-1.889-3.967-2.861-5.936-.067-.136-.121-.256-.188-.392a2.661,2.661,0,0,1-.189-.553,1.991,1.991,0,0,1,.918-2.212,2.035,2.035,0,0,1,2.739.688c.014.014.014.027.027.041.136.283.284.566.419.85,1.12,2.293,2.24,4.614,3.319,6.935.162.31.311.621.445.944.472.985.931,1.97,1.391,2.954.5,1.093,1.011,2.186,1.5,3.279q.223.485.444.971c.634,1.39,1.255,2.793,1.863,4.183q.546,1.2,1.052,2.388c.122.27.242.553.35.824q5.849,13.437,10.983,27.159,3.866,5.141,7.3,10.552a157.284,157.284,0,0,1,13.087,25.77c.108-5.613.055-11.226-.338-16.825-1-14.424-5.1-28.32-7.42-42.541-1.782-11-2.335-22.168.391-32.975a26.119,26.119,0,0,1-12.9-15.463,10.2,10.2,0,0,1-.3-1.052,22.565,22.565,0,0,1-.675-3.562c-.041-.338-.067-.688-.094-1.025a23.938,23.938,0,0,1-.014-2.942,2.024,2.024,0,0,1,4.048,0c-.027.539-.041,1.066-.027,1.605a10.842,10.842,0,0,0,.053,1.147,20.539,20.539,0,0,0,.824,4.439c.094.338.2.675.31,1,.23.634.472,1.241.756,1.848A13.847,13.847,0,0,0,327.62,247a.285.285,0,0,0,.081.135,21.7,21.7,0,0,0,8.365,8.487,48.191,48.191,0,0,1,6.112-12.359,3.057,3.057,0,0,1,.311-.419c.35-.525.728-1.025,1.119-1.524.175-.23.351-.445.539-.661.27-.337.541-.661.837-.986a34.706,34.706,0,0,1,3.953-3.872c.391-.338.783-.661,1.2-.958a31.388,31.388,0,0,1,5.249-3.319,2.078,2.078,0,0,1,2.766.728,2.034,2.034,0,0,1-.73,2.766A32.858,32.858,0,0,0,354.012,237a29.136,29.136,0,0,0-3.725,2.955,15.637,15.637,0,0,0-1.255,1.227,31.786,31.786,0,0,0-3.4,4.115,47.4,47.4,0,0,0-7.218,16.987,64.3,64.3,0,0,0-1.255,17.581,26.508,26.508,0,0,0,7.677-5.019c3.858-3.441,7.11-7.476,10.861-11.01a3.145,3.145,0,0,1,.242-.216c.431-.4.863-.81,1.308-1.188.985-.85,2.024-1.66,3.09-2.415a28.338,28.338,0,0,1,5.194-2.968c.4-.189.81-.351,1.214-.5a19.5,19.5,0,0,1,6.8-1.294C376.152,255.253,376.152,259.3,373.548,259.3Z" transform="translate(-249.012 -190.052)"/><g transform="translate(100.897 118.152)"><path class="a" d="M403.069,297.644c-11.927,5.005-25.149,4.857-37.455,8.527a42.82,42.82,0,0,0-15.138,7.61,28.814,28.814,0,0,0-9.053,13.411,29.283,29.283,0,0,0-.081,18c.014.028.014.055.041.081a.5.5,0,0,0,.338.324.707.707,0,0,0,.741-.121q.2.425.445.849a11.52,11.52,0,0,0,2.132,2.9,10.1,10.1,0,0,0,1.43,1.161c2.982,1.97,6.382,1.524,9.148-.553,2.509-1.916,4.4-4.642,7.178-6.193,3.792-2.105,8.042-.23,11.28,2.051,3.345,2.334,6.26,5.4,10.213,6.732a12.69,12.69,0,0,0,10.646-1.5c7.191-4.453,8.931-13.344,8.486-21.2-.566-10.214-4.492-21.345.419-31.1C404.068,298.17,403.663,297.4,403.069,297.644Z" transform="translate(-339.965 -297.598)"/><path class="c" d="M376.13,326.086a17.579,17.579,0,0,0,4.516.855.686.686,0,0,0,.276.7,13.9,13.9,0,0,0,18.357-1.83c.587-.638-.365-1.595-.955-.953a12.552,12.552,0,0,1-16.15,2,6.952,6.952,0,0,0,1.417-.336,8.676,8.676,0,0,0,4.386-3.909,18.076,18.076,0,0,0,1.794-4.764,13.852,13.852,0,0,0,9.139-6.95c.406-.767-.757-1.449-1.166-.681a12.538,12.538,0,0,1-7.614,6.137c.7-3,1.349-6.016,3.417-8.35.573-.648-.377-1.605-.955-.955-2.266,2.559-2.9,5.783-3.671,8.975a10.158,10.158,0,0,1-2.152-7.676.678.678,0,0,0-.675-.674.69.69,0,0,0-.674.674,11.4,11.4,0,0,0,3.1,9.263,23.31,23.31,0,0,1-.778,2.4,8.916,8.916,0,0,1-4.127,5.044,6.078,6.078,0,0,1-2.089.537,18.841,18.841,0,0,1-3.132-17.084c.26-.83-1.043-1.187-1.3-.358a20.219,20.219,0,0,0,2.726,17.4,23.482,23.482,0,0,1-4.208-1.035A30.715,30.715,0,0,0,368.193,323a25.643,25.643,0,0,0-3.822.07,14.166,14.166,0,0,1,.158-10.791c.346-.788-.817-1.474-1.166-.681A15.507,15.507,0,0,0,363,323.236c-.726.1-1.449.23-2.162.393a25.306,25.306,0,0,0-7.7,3.194,18.978,18.978,0,0,1,2.176-9.86c.408-.767-.756-1.449-1.165-.681a20.316,20.316,0,0,0-2.338,11.083.7.7,0,0,0,.082.285,24.84,24.84,0,0,0-3.493,2.971,25.682,25.682,0,0,0-1.99,2.341,17.692,17.692,0,0,1,.031-8.1c.206-.843-1.095-1.2-1.3-.358a19.18,19.18,0,0,0,.173,9.765.674.674,0,0,0,.072.138,25.757,25.757,0,0,0-3.925,9.833c-.145.85,1.155,1.214,1.3.36a24.376,24.376,0,0,1,3.445-8.921,19.137,19.137,0,0,0,9.238,5.1c.844.191,1.206-1.109.358-1.3a17.864,17.864,0,0,1-8.827-4.934,24.727,24.727,0,0,1,5.083-5.288c.015.019.017.039.035.058a18.5,18.5,0,0,0,12.042,6.043c.864.081.859-1.268,0-1.349a17.107,17.107,0,0,1-10.989-5.547,23.706,23.706,0,0,1,7.919-3.5,24.707,24.707,0,0,1,4.591-.615.643.643,0,0,0,.03.3,24.7,24.7,0,0,0,26.643,16.8c.85-.108.861-1.458,0-1.349A23.372,23.372,0,0,1,367,324.32c.491,0,.98.013,1.47.048A34.752,34.752,0,0,1,376.13,326.086Z" transform="translate(-339.727 -296.122)"/></g><g transform="translate(0 87.732)"><path class="a" d="M307.705,288.845a20.278,20.278,0,0,0-1.713-5.222,21.145,21.145,0,0,0-10.672-10.375,18.322,18.322,0,0,0-2.5-.9,26.92,26.92,0,0,0-7.462-.972c-1.079,0-2.145.055-3.211.148l-1.538.162c-9.189,1.119-17.891,5.033-27.228,5.167-.472,0-.513.634-.23.877,6.058,5.019,6.679,13.52,9.256,20.441,1.97,5.316,5.694,10.7,11.724,11.562a9.1,9.1,0,0,0,7.476-2.077c2.226-2.024,3.278-4.884,4.8-7.393,1.5-2.443,3.75-4.911,6.881-4.614,2.28.228,4.317,1.484,6.53,2.023a5.523,5.523,0,0,0,6.207-2.266,7.041,7.041,0,0,0,.822-1.78,8.574,8.574,0,0,0,.364-1.957,5.487,5.487,0,0,0,.041-.675.558.558,0,0,0,.541-.121.468.468,0,0,0,.135-.392C307.88,289.924,307.8,289.384,307.705,288.845Z" transform="translate(-252.978 -271.372)"/><path class="d" d="M278.7,288.356a12.708,12.708,0,0,1-2.74,1.867.5.5,0,0,1,.019.541,10.027,10.027,0,0,1-12.669,4.085c-.573-.253-.219-1.16.355-.906a9.059,9.059,0,0,0,11.258-3.337,5.022,5.022,0,0,1-1.035.186,6.255,6.255,0,0,1-4.028-1.32,13.062,13.062,0,0,1-2.561-2.632,10,10,0,0,1-8.049-1.96c-.491-.39.082-1.177.574-.786a9.046,9.046,0,0,0,6.805,1.862c-1.328-1.785-2.627-3.59-4.669-4.538-.566-.262-.213-1.17.356-.906,2.237,1.038,3.589,2.987,5.018,4.876a7.332,7.332,0,0,0-.792-5.7.49.49,0,0,1,.252-.64.5.5,0,0,1,.641.252,8.229,8.229,0,0,1,.624,7.02,16.881,16.881,0,0,0,1.207,1.364,6.436,6.436,0,0,0,4.185,2.146,4.391,4.391,0,0,0,1.537-.248,13.6,13.6,0,0,0-2.858-12.2c-.412-.474.347-1.086.756-.612a14.588,14.588,0,0,1,3.218,12.3,16.948,16.948,0,0,0,2.486-1.9,22.194,22.194,0,0,1,4.468-3.142,18.644,18.644,0,0,1,2.547-1.057,10.218,10.218,0,0,0-3.216-7.091c-.456-.421.114-1.211.574-.786a11.187,11.187,0,0,1,3.6,7.593c.509-.139,1.023-.266,1.543-.363a18.294,18.294,0,0,1,6.018-.11,13.7,13.7,0,0,0-4.285-5.894c-.491-.389.082-1.176.574-.786a14.67,14.67,0,0,1,4.744,6.656.517.517,0,0,1,.028.213,17.867,17.867,0,0,1,3.167.956,18.386,18.386,0,0,1,1.992.974,12.768,12.768,0,0,0-2.357-5.348c-.38-.5.377-1.111.756-.612a13.834,13.834,0,0,1,2.7,6.508.444.444,0,0,1-.008.113,18.584,18.584,0,0,1,5.433,5.37c.341.521-.413,1.137-.756.614a17.568,17.568,0,0,0-4.853-4.906,13.8,13.8,0,0,1-4.637,6.037c-.5.37-1.118-.385-.612-.757a12.892,12.892,0,0,0,4.413-5.81,17.808,17.808,0,0,0-4.888-2.031.345.345,0,0,1-.006.049,13.342,13.342,0,0,1-6.221,7.471c-.549.3-.934-.59-.39-.892a12.349,12.349,0,0,0,5.669-6.839,17.105,17.105,0,0,0-6.247-.029,17.981,17.981,0,0,0-3.213.917.477.477,0,0,1,.065.206,17.826,17.826,0,0,1-12.773,18.8c-.594.174-.991-.716-.39-.892a16.863,16.863,0,0,0,12.2-17.742c-.322.145-.644.292-.958.456A25.067,25.067,0,0,0,278.7,288.356Z" transform="translate(-252.004 -270.797)"/></g><g transform="translate(106.679 40.533)"><path class="a" d="M428.771,251.812c-7.232-1.524-11.441-8.243-16.245-13.209a25.664,25.664,0,0,0-8.406-6.018,23.921,23.921,0,0,0-9.742-1.9,29.751,29.751,0,0,0-10.16,2.374,19.376,19.376,0,0,1-5.532,1.458,33.88,33.88,0,0,1-5.95-.472,16.742,16.742,0,0,0-9.983,2.09,29.858,29.858,0,0,0-7.88,6.652,42,42,0,0,0-9.647,20.59,3.091,3.091,0,0,0-.053.337l-.041.2a.688.688,0,0,0,.3.688.8.8,0,0,0,.458.148,17.2,17.2,0,0,0,1.35,2.577,18.048,18.048,0,0,0,10.186,7.474,16.793,16.793,0,0,0,8.5.148c3.454-.836,6.8-2.6,10.43-2.523,3.279.1,6.207,1.808,9.08,3.2,2.888,1.4,5.869,2.482,9.134,2.213,7-.581,12.359-5.627,16.717-10.686,4.844-5.653,9.769-12.387,17.487-14.031A.684.684,0,0,0,428.771,251.812Z" transform="translate(-344.922 -230.68)"/><path class="c" d="M418.551,250.82c-4.059-3.371-9.508-3.608-14.527-3.046-.638.072-1.274.157-1.909.242a17.118,17.118,0,0,1,6.34-4.868.679.679,0,0,0,.242-.922.692.692,0,0,0-.923-.242,18.342,18.342,0,0,0-7.41,6.055.512.512,0,0,0-.087.226c-1.731.238-3.464.462-5.21.543a39.064,39.064,0,0,1-5.811-.228,20.474,20.474,0,0,1,10.453-12.851c.775-.391.093-1.555-.681-1.165a21.781,21.781,0,0,0-11.136,13.866c-.616-.077-1.232-.155-1.845-.242-3.029-.43-6.036-.873-9.054-1.051a15.305,15.305,0,0,1,7.529-12.018.675.675,0,0,0-.681-1.166,16.688,16.688,0,0,0-8.191,13.119,33.562,33.562,0,0,0-5.824.293,34.831,34.831,0,0,0-5.3,1.2,33.427,33.427,0,0,1,6.283-11.53c.554-.661-.394-1.619-.953-.953a35.048,35.048,0,0,0-6.833,12.757.654.654,0,0,0-.019.233,36.737,36.737,0,0,0-6.464,3.062c-.56.335-1.11.688-1.651,1.053a11.613,11.613,0,0,1,3.8-9.458c.65-.58-.307-1.531-.953-.953a12.926,12.926,0,0,0-4.092,11.3,35.286,35.286,0,0,0-8.586,9.064c-.476.73.691,1.406,1.165.681a31.769,31.769,0,0,1,2.45-3.223,22.993,22.993,0,0,0,6.064,5.8c.731.474,1.407-.692.681-1.165a21.366,21.366,0,0,1-5.845-5.666,34.833,34.833,0,0,1,4.73-4.27,15.632,15.632,0,0,0,10.67,10.455.675.675,0,0,0,.358-1.3,14.263,14.263,0,0,1-9.866-9.917c-.007-.023-.022-.036-.029-.058a35.363,35.363,0,0,1,7.636-3.98.527.527,0,0,0,.019.1,44.082,44.082,0,0,0,14.2,18.571c.69.525,1.364-.646.681-1.166a42.376,42.376,0,0,1-13.574-17.764.726.726,0,0,0-.109-.165,34.422,34.422,0,0,1,4.25-1.126,33.026,33.026,0,0,1,7.708-.516,16.125,16.125,0,0,0,3.446,11.851c2.74,3.632,6.468,6.309,10.162,8.888.713.5,1.388-.67.681-1.166-6.333-4.42-14.368-10.639-12.965-19.441,0-.019,0-.034,0-.052,2.126.145,4.253.414,6.388.726,1.246.183,2.493.364,3.743.521a25,25,0,0,0,15.7,16.036c.825.28,1.178-1.023.36-1.3a23.59,23.59,0,0,1-14.574-14.569c1,.1,2.009.195,3.017.235a46.734,46.734,0,0,0,8.255-.567.72.72,0,0,0,.13.255,15.685,15.685,0,0,0,12.457,5.851.675.675,0,0,0,0-1.349,14.389,14.389,0,0,1-11.063-4.963c5.3-.706,11.274-1.224,15.625,2.389C418.261,252.324,419.221,251.375,418.551,250.82Z" transform="translate(-344.95 -230.172)"/></g><g transform="translate(88.651)"><path class="a" d="M383.858,195.808c-5.694,2.969-12.21.8-18.161.108a22.482,22.482,0,0,0-8.945.622,21.057,21.057,0,0,0-7.57,4.088,26.068,26.068,0,0,0-5.491,7.205,17.145,17.145,0,0,1-2.9,4.034,29.8,29.8,0,0,1-4.237,2.954,14.376,14.376,0,0,0-5.532,6.908,25.425,25.425,0,0,0-1.605,8.8,36.4,36.4,0,0,0,4.506,18.417c.122.242.256.472.391.7.081.135.148.256.23.391a.6.6,0,0,0,.648.283l.013-.013a.564.564,0,0,0,.311-.122,13.31,13.31,0,0,0,1.862.8,15.5,15.5,0,0,0,11.4-.431,14.649,14.649,0,0,0,5.775-4.587c1.848-2.469,3.117-5.491,5.585-7.434,2.24-1.754,5.155-2.227,7.84-2.874a15.231,15.231,0,0,0,7.34-3.562c4.358-4.25,5.167-10.577,5.288-16.366.136-6.462-.3-13.681,3.967-19.038A.594.594,0,0,0,383.858,195.808Z" transform="translate(-329.407 -195.735)"/><path class="c" d="M376.443,200.456c-4.576-.017-8.354,2.828-11.4,5.974-.387.4-.767.807-1.145,1.214a14.846,14.846,0,0,1,1.559-6.754.59.59,0,0,0-.347-.752.6.6,0,0,0-.75.348,15.912,15.912,0,0,0-1.622,8.139.44.44,0,0,0,.067.2c-1.026,1.115-2.063,2.22-3.189,3.237a33.844,33.844,0,0,1-4.014,3.052,17.748,17.748,0,0,1-.09-14.366c.3-.69-.8-1.093-1.1-.4a18.892,18.892,0,0,0,.193,15.422c-.454.289-.909.575-1.368.855-2.265,1.384-4.523,2.746-6.641,4.291a13.273,13.273,0,0,1-1.589-12.2.586.586,0,0,0-1.1-.4,14.476,14.476,0,0,0,1.753,13.3,29.06,29.06,0,0,0-3.736,3.408,30.087,30.087,0,0,0-2.882,3.726,28.974,28.974,0,0,1-2.153-11.182c.007-.748-1.158-.866-1.165-.113a30.41,30.41,0,0,0,2.461,12.306.571.571,0,0,0,.117.168,31.782,31.782,0,0,0-2.638,5.613q-.285.8-.524,1.616a10.068,10.068,0,0,1-2.671-8.427c.114-.746-1.051-.855-1.165-.113a11.209,11.209,0,0,0,3.495,9.822,30.6,30.6,0,0,0-.748,10.8c.083.75,1.239.559,1.155-.187a27.719,27.719,0,0,1-.139-3.509,19.947,19.947,0,0,0,7.256.536c.75-.086.56-1.24-.187-1.155a18.549,18.549,0,0,1-7.037-.57,30.18,30.18,0,0,1,.812-5.465A13.561,13.561,0,0,0,348.821,240a.586.586,0,0,0-.478-1.069,12.372,12.372,0,0,1-12.074-1.2c-.016-.013-.034-.013-.051-.023a30.681,30.681,0,0,1,2.916-6.876c.024.019.037.042.067.057a38.23,38.23,0,0,0,19.742,4.6c.753-.029.557-1.184-.187-1.155a36.766,36.766,0,0,1-18.882-4.4.592.592,0,0,0-.164-.051,29.87,29.87,0,0,1,2.224-3.1,28.6,28.6,0,0,1,4.874-4.6,13.987,13.987,0,0,0,8.842,6.032c3.837.92,7.809.655,11.7.345.753-.06.559-1.216-.187-1.155-6.676.534-15.485.8-19.4-5.862-.008-.014-.021-.021-.03-.034,1.5-1.075,3.075-2.068,4.676-3.037.935-.565,1.87-1.132,2.793-1.715a21.683,21.683,0,0,0,19.35,2.076c.705-.268.224-1.335-.478-1.068a20.462,20.462,0,0,1-17.79-1.713c.731-.484,1.452-.978,2.151-1.507a40.683,40.683,0,0,0,5.211-4.932.641.641,0,0,0,.229.1,13.6,13.6,0,0,0,11.564-2.954c.571-.489-.172-1.394-.745-.9a12.481,12.481,0,0,1-10.141,2.779c3.154-3.393,6.87-7.037,11.774-7.019C377.078,201.624,377.2,200.459,376.443,200.456Z" transform="translate(-329.122 -195.056)"/></g><g transform="translate(33.901 8.435)"><path class="a" d="M330.1,226.2a12.906,12.906,0,0,0-4.938-6.166,26.316,26.316,0,0,1-3.778-2.645,14.852,14.852,0,0,1-2.591-3.589,22.811,22.811,0,0,0-4.9-6.422,18.517,18.517,0,0,0-6.76-3.656,19.918,19.918,0,0,0-7.987-.553c-5.3.607-11.118,2.55-16.2-.1a.525.525,0,0,0-.634.783c3.806,4.777,3.428,11.226,3.535,16.987.108,5.167.836,10.807,4.722,14.613a13.578,13.578,0,0,0,6.544,3.17c2.4.58,5.005,1,7,2.563,2.212,1.727,3.345,4.425,4.992,6.625a12.975,12.975,0,0,0,5.154,4.1,13.827,13.827,0,0,0,8.716.822,12.554,12.554,0,0,0,3.117-1.146.609.609,0,0,0,.338.121.482.482,0,0,0,.486-.2.185.185,0,0,0,.041-.055c.067-.121.148-.242.216-.364a32.5,32.5,0,0,0,4.358-17.04A22.907,22.907,0,0,0,330.1,226.2Z" transform="translate(-282.205 -203.007)"/><path class="d" d="M288.392,207.221c4.084-.015,7.456,2.524,10.176,5.331.346.356.684.72,1.022,1.085a13.236,13.236,0,0,0-1.392-6.028.527.527,0,0,1,.31-.672.535.535,0,0,1,.67.311,14.194,14.194,0,0,1,1.446,7.263.4.4,0,0,1-.06.177c.918.994,1.842,1.981,2.846,2.888a30.139,30.139,0,0,0,3.583,2.723,15.839,15.839,0,0,0,.08-12.819c-.269-.616.711-.975.98-.361a16.858,16.858,0,0,1-.172,13.762c.4.258.812.514,1.221.763,2.021,1.234,4.035,2.45,5.926,3.829a11.848,11.848,0,0,0,1.417-10.883.523.523,0,0,1,.98-.361,12.916,12.916,0,0,1-1.564,11.867,25.99,25.99,0,0,1,3.334,3.041,26.833,26.833,0,0,1,2.573,3.325,25.883,25.883,0,0,0,1.922-9.979c-.007-.668,1.034-.774,1.039-.1a27.153,27.153,0,0,1-2.2,10.982.5.5,0,0,1-.1.15,28.457,28.457,0,0,1,2.353,5.01q.254.715.467,1.442a8.986,8.986,0,0,0,2.385-7.52c-.1-.666.937-.763,1.039-.1a10,10,0,0,1-3.119,8.766,27.3,27.3,0,0,1,.667,9.64c-.074.67-1.105.5-1.031-.166a24.584,24.584,0,0,0,.124-3.132,17.788,17.788,0,0,1-6.476.478c-.669-.075-.5-1.107.167-1.031a16.535,16.535,0,0,0,6.28-.508,26.936,26.936,0,0,0-.724-4.877,12.1,12.1,0,0,1-11.519.993.523.523,0,0,1,.427-.953,11.04,11.04,0,0,0,10.774-1.067c.015-.012.03-.012.045-.021a27.379,27.379,0,0,0-2.6-6.136c-.022.016-.034.037-.06.051a34.124,34.124,0,0,1-17.619,4.106c-.672-.027-.5-1.058.167-1.031a32.807,32.807,0,0,0,16.851-3.93.556.556,0,0,1,.146-.045,26.822,26.822,0,0,0-1.985-2.765,25.488,25.488,0,0,0-4.35-4.1A12.479,12.479,0,0,1,306.948,232a33.274,33.274,0,0,1-10.445.307c-.67-.053-.5-1.085.167-1.031,5.958.477,13.819.717,17.314-5.231.007-.013.019-.019.027-.03-1.341-.959-2.743-1.845-4.172-2.71-.834-.5-1.668-1.01-2.493-1.531a19.349,19.349,0,0,1-17.268,1.852c-.63-.239-.2-1.191.426-.953a18.258,18.258,0,0,0,15.876-1.529c-.652-.431-1.3-.872-1.918-1.344a36.208,36.208,0,0,1-4.651-4.4.568.568,0,0,1-.2.088,12.138,12.138,0,0,1-10.321-2.636c-.509-.436.153-1.243.665-.806a11.133,11.133,0,0,0,9.05,2.481c-2.814-3.027-6.131-6.28-10.508-6.264C287.825,208.262,287.719,207.223,288.392,207.221Z" transform="translate(-281.289 -202.4)"/></g><g transform="translate(24.713 44.55)"><path class="a" d="M317.749,264.887a12.854,12.854,0,0,0-3.845-6.895,26.8,26.8,0,0,1-3.292-3.238,15.506,15.506,0,0,1-1.957-3.967,23.2,23.2,0,0,0-3.75-7.165,18.659,18.659,0,0,0-6.058-4.722,19.89,19.89,0,0,0-7.785-1.876c-5.343-.283-11.4.675-15.962-2.793a.524.524,0,0,0-.755.661c2.942,5.356,1.5,11.644.661,17.338-.755,5.127-.985,10.807,2.226,15.205a13.559,13.559,0,0,0,5.924,4.209c2.266.985,4.763,1.822,6.462,3.7a13.625,13.625,0,0,1,2.294,3.859c.5,1.188.958,2.388,1.538,3.509a12.659,12.659,0,0,0,2.537,3.4c0,.027.013.014.013.014a12.165,12.165,0,0,0,1.835,1.484c.041.027.068.041.108.067a13.553,13.553,0,0,0,4.642,1.9,13.2,13.2,0,0,0,5.249.122,12.915,12.915,0,0,0,1.727-.431.618.618,0,0,0,.324.189.554.554,0,0,0,.553-.176c.094-.108.175-.216.27-.324q.4-.485.768-.971a32.475,32.475,0,0,0,6.369-15.111A23,23,0,0,0,317.749,264.887Z" transform="translate(-274.284 -234.143)"/><path class="c" d="M279.9,239.176c4.03.665,6.932,3.73,9.147,6.95.282.409.554.825.827,1.24a13.253,13.253,0,0,0-.369-6.175.526.526,0,0,1,.416-.61.535.535,0,0,1,.61.418,14.2,14.2,0,0,1,.217,7.4.393.393,0,0,1-.089.165c.739,1.133,1.487,2.259,2.326,3.322a30.185,30.185,0,0,0,3.08,3.283,15.845,15.845,0,0,0,2.214-12.628c-.165-.652.863-.843,1.027-.193a16.863,16.863,0,0,1-2.461,13.543q.534.482,1.078.955c1.786,1.554,3.571,3.088,5.206,4.763a11.85,11.85,0,0,0,3.209-10.5.523.523,0,0,1,1.027-.193,12.914,12.914,0,0,1-3.518,11.441,25.837,25.837,0,0,1,2.781,3.554,26.943,26.943,0,0,1,1.983,3.707,25.866,25.866,0,0,0,3.555-9.521c.105-.659,1.148-.59,1.043.074a27.142,27.142,0,0,1-4,10.464.52.52,0,0,1-.126.13,28.432,28.432,0,0,1,1.486,5.332q.132.746.222,1.5a8.987,8.987,0,0,0,3.6-7.019c.01-.674,1.052-.6,1.042.074a10.006,10.006,0,0,1-4.534,8.124,27.308,27.308,0,0,1-.948,9.616c-.184.648-1.173.309-.988-.335a24.884,24.884,0,0,0,.644-3.067,17.792,17.792,0,0,1-6.465-.608c-.648-.186-.309-1.174.336-.988a16.523,16.523,0,0,0,6.276.544,26.92,26.92,0,0,0,.1-4.93,12.1,12.1,0,0,1-11.524-.938.522.522,0,0,1,.579-.869,11.039,11.039,0,0,0,10.8.74.329.329,0,0,1,.049-.012,27.375,27.375,0,0,0-1.545-6.484.381.381,0,0,1-.067.039,34.125,34.125,0,0,1-18.056,1.116c-.658-.138-.314-1.125.336-.988a32.816,32.816,0,0,0,17.27-1.069.545.545,0,0,1,.152-.021,26.793,26.793,0,0,0-1.5-3.056,25.551,25.551,0,0,0-3.606-4.768,12.482,12.482,0,0,1-8.677,3.994,33.245,33.245,0,0,1-10.35-1.436c-.653-.165-.312-1.152.335-.988,5.8,1.461,13.507,3.008,17.944-2.276.009-.012.021-.015.031-.026-1.163-1.169-2.4-2.277-3.663-3.367-.739-.636-1.478-1.274-2.2-1.924a19.353,19.353,0,0,1-17.336-1.047c-.581-.341,0-1.209.579-.87a18.253,18.253,0,0,0,15.908,1.136c-.57-.534-1.132-1.075-1.668-1.645a36.275,36.275,0,0,1-3.852-5.114.579.579,0,0,1-.216.052,12.135,12.135,0,0,1-9.737-4.317c-.43-.515.357-1.2.789-.684a11.136,11.136,0,0,0,8.511,3.953c-2.271-3.454-5-7.214-9.32-7.926C279.164,240.109,279.232,239.067,279.9,239.176Z" transform="translate(-273.596 -233.339)"/></g></g><rect class="e" width="120.896" height="143.215" rx="6.605" transform="translate(120.896 143.215) rotate(180)"/><g class="f" transform="translate(9.602 20.388)"><g transform="translate(51.314 33.941)"><path class="g" d="M158.231,173.3c.144,2.407.336,4.9,1.515,7.006,1.539,2.746,4.506,4.371,7.465,5.445a41.457,41.457,0,0,0,23.858.844c4.134-1.013,8.489-2.848,10.447-6.625,1.848-3.563,1.065-7.885-.042-11.744a123.792,123.792,0,0,0-8.761-21.424,161.687,161.687,0,0,0-10.91-19.318,19.989,19.989,0,0,0-7.135-6.747,10.277,10.277,0,0,0-9.526-.154,10.7,10.7,0,0,0-4.394,5.37,27.911,27.911,0,0,0-1.575,6.873A199.367,199.367,0,0,0,157.94,167.6Q158.06,170.454,158.231,173.3Z" transform="translate(-152.246 -119.483)"/><g transform="translate(0 6.495)"><path class="h" d="M154.118,131.624a2.479,2.479,0,0,1,2.4-.421,2.415,2.415,0,0,1,1.343,1.231,28.729,28.729,0,0,1,9.5,5.1c.136.108.266.223.4.333a10.805,10.805,0,0,1,3.117-.5l.017-.021q.268-.271.518-.56.12-.139.237-.282l.092-.115.031-.042a11.942,11.942,0,0,0,.82-1.254c.115-.2.223-.408.326-.617a7.252,7.252,0,0,1-2.242-6.715.975.975,0,0,1,1.194-.679,1,1,0,0,1,.677,1.194c-.009.051-.016.1-.024.151a6.287,6.287,0,0,0,0,1.346,6.5,6.5,0,0,0,.218.963c.051.16.109.317.171.472l.038.085c.041.088.083.174.129.261.081.155.169.309.264.457.051.081.106.162.161.241s.24.288.037.058l.132.152a12.76,12.76,0,0,0,.318-1.545,12.372,12.372,0,0,0,0-2.987,11.7,11.7,0,0,0-.361-1.631.98.98,0,0,1,.677-1.194.991.991,0,0,1,1.194.677,12.784,12.784,0,0,1,.5,4.245c.052-.053.1-.111.148-.168a3.469,3.469,0,0,0,.3-.52,3.2,3.2,0,0,0,.148-.539c.007-.08.016-.161.017-.241a.97.97,0,1,1,1.939,0,4.219,4.219,0,0,1-2.83,3.886c-.019.007-.039.007-.059.013a13.416,13.416,0,0,1-1.525,3.82,12.787,12.787,0,0,1-.855,1.26c.168.027.335.056.5.086a22.413,22.413,0,0,1,3.4.959,10.086,10.086,0,0,1,4.429-4.076,1.049,1.049,0,0,1,.748-.1,1,1,0,0,1,.58.447.982.982,0,0,1-.348,1.327,9.132,9.132,0,0,0-1.315.746c-.1.071-.206.145-.307.22l-.024.019-.119.1q-.3.249-.583.522t-.52.55c-.082.1-.164.193-.242.291l-.015.017c-.031.043-.064.086-.1.13-.122.167-.233.342-.343.517q1.188.487,2.349,1.038a42.337,42.337,0,0,1,3.869,2.112.97.97,0,0,1-.979,1.675c-.552-.34-1.115-.662-1.682-.977a17.685,17.685,0,0,1,1.155,3.835,19.284,19.284,0,0,1,.262,2.128.975.975,0,0,1-.97.971.994.994,0,0,1-.971-.971c-.022-.332-.055-.661-.1-.991a17.242,17.242,0,0,0-.883-3.525c-.052-.143-.107-.284-.164-.426-.028-.07-.056-.139-.085-.209l-.028-.065c-.029-.067-.063-.131-.093-.2a4.666,4.666,0,0,1-1.587,1.815.971.971,0,0,1-1.327-.348,1,1,0,0,1,.348-1.328l.051-.036a3.605,3.605,0,0,0,.491-.487,3.721,3.721,0,0,0,.354-.605,3.681,3.681,0,0,0,.18-.655c.007-.08.016-.16.019-.24a1.017,1.017,0,0,1,.06-.3c-.2-.089-.4-.18-.6-.267l-.1-.042-.3-.122q-.3-.122-.6-.238c-.79-.306-1.589-.593-2.4-.839a18.389,18.389,0,0,0-2.663-.6,11.908,11.908,0,0,0-2.866-.019c-.082.013-.165.028-.247.043a41.291,41.291,0,0,1,5.707,6.7,57.293,57.293,0,0,1,3.879,6.61q3.542.9,6.986,2.139a1.187,1.187,0,0,1,.147-.06c.122-.036.244-.077.362-.122l.153-.06-.079.03.046-.02a5.315,5.315,0,0,0,.623-.341c.1-.066.205-.139.306-.211.037-.03.075-.06.111-.092a5.388,5.388,0,0,0,.525-.516c.043-.048.085-.1.124-.145l.009-.012-.026.036.028-.039c.031-.039.072-.1.055-.078.043-.059.086-.117.125-.179a5.187,5.187,0,0,0,.37-.672l.013-.027c.02-.05.039-.1.058-.151.043-.121.082-.242.117-.365a5.391,5.391,0,0,0,.139-.65,5.474,5.474,0,0,0,.009-1.05.973.973,0,0,1,.97-.97,1,1,0,0,1,.971.97,6.325,6.325,0,0,1-2.691,5.663c.31.124.621.247.928.376q1.635.684,3.242,1.434a.975.975,0,0,1,.348,1.328,1,1,0,0,1-1.327.348c-.454-.213-.907-.421-1.364-.625q-.327-.146-.657-.289l-.3-.13-.18-.077c-.026-.01-.275-.117-.124-.053s-.048-.02-.065-.027l-.18-.075-.3-.124-.016-.007a15.686,15.686,0,0,1,.891,4.5,14.382,14.382,0,0,1-.036,1.923.97.97,0,1,1-1.941,0,13.348,13.348,0,0,0-.651-5.529q-.1-.318-.226-.632c-.036-.1-.073-.19-.113-.284v0a1.011,1.011,0,0,1-.068-.159c-.119-.269-.251-.534-.387-.795q-2.542-.938-5.145-1.691c-.219-.063-.441-.121-.66-.182q.672,1.442,1.293,2.906c.879,2.067,1.7,4.161,2.489,6.261q.31.819.617,1.64a24.512,24.512,0,0,1,7.871,3.859,25.724,25.724,0,0,1,2.348,1.954.979.979,0,0,1,0,1.372.991.991,0,0,1-1.372,0q-.463-.438-.949-.85c-.147-.125-.3-.247-.447-.369l-.226-.18-.007-.006.021.015c-.048-.034-.093-.071-.138-.106a23.984,23.984,0,0,0-2.06-1.4,23.687,23.687,0,0,0-2.193-1.176q-.287-.136-.58-.264c-.088-.038-.179-.073-.266-.115.288.135-.071-.028-.143-.057-.332-.135-.668-.259-1.006-.377q.465,1.263.911,2.533a36.928,36.928,0,0,1,1.8,6.805,3.526,3.526,0,0,1-.022,1.937,1.4,1.4,0,0,1-.621.779,1.419,1.419,0,0,1-1.9-.5,9.509,9.509,0,0,1-1.1-2.416c-.194.913-.4,1.825-.626,2.73a.97.97,0,0,1-1.871-.516q.828-3.287,1.346-6.641-.6-2.137-1.356-4.224c-.187-.516-.383-1.028-.585-1.537-.1.314-.205.631-.3.95a23.251,23.251,0,0,0-.93,7.543.979.979,0,0,1-.97.971.991.991,0,0,1-.971-.971,25.586,25.586,0,0,1,1.373-9.236c.212-.615.451-1.221.709-1.82q-.929-2.041-2-4.01c-.389-.711-.795-1.412-1.211-2.105q-.343,3.278-.448,6.574a89.936,89.936,0,0,0,.191,9.222q.188,2.606.529,5.2a.963.963,0,0,1-.284.687.97.97,0,0,1-1.372,0,1.143,1.143,0,0,1-.284-.687,89.834,89.834,0,0,1-.739-9.6c-.013-.6-.019-1.195-.021-1.792-.183.155-.369.309-.545.473a15.254,15.254,0,0,0-1.488,1.608l-.071.089-.124.165q-.171.23-.331.464-.306.447-.58.914t-.514.953c-.077.154-.15.309-.22.465l-.1.233-.053.132a14.815,14.815,0,0,0-.719,2.326.976.976,0,0,1-1.194.677.992.992,0,0,1-.677-1.194,15.865,15.865,0,0,1,1.7-4.395c-.026-.015-.049-.031-.075-.045-.119-.065-.241-.128-.364-.186l-.152-.07-.046-.019a5.954,5.954,0,0,0-2.61-.441.976.976,0,0,1-.97-.97.991.991,0,0,1,.97-.971,7.885,7.885,0,0,1,4.309,1.072,16.123,16.123,0,0,1,1.741-2,16.385,16.385,0,0,1,2.123-1.726l.016-.008q.064-2.664.285-5.319c.115-1.366.266-2.729.442-4.088a12.36,12.36,0,0,0-2.635.049,13.108,13.108,0,0,0-1.811.4c-.278.084-.554.177-.828.28l-.085.188-.039.089c-.058.147-.118.3-.174.445-.121.325-.229.655-.325.988a14.034,14.034,0,0,0-.394,1.84,14.2,14.2,0,0,0,0,3.528c.05.333.108.662.181.991a.97.97,0,1,1-1.871.516,15.066,15.066,0,0,1,.188-7.271l-.059.038q-.193.132-.383.271l-.157.117-.1.081c-.256.206-.506.425-.746.651q-.4.376-.761.786c-.126.143-.249.29-.369.438l-.052.065c-.058.079-.117.158-.175.238a1.051,1.051,0,0,1-.58.447.971.971,0,0,1-1.095-1.426,13.751,13.751,0,0,1,3.269-3.222c-.162-.032-.325-.058-.488-.082a9,9,0,0,0-1.63-.043.975.975,0,0,1-.97-.97.993.993,0,0,1,.97-.971,9.9,9.9,0,0,1,4.416.767,14.546,14.546,0,0,1,4.146-1.134,12.634,12.634,0,0,1,1.45-.088q-.592-.821-1.205-1.627a60.579,60.579,0,0,0-6.12-6.751q-.952-.9-1.944-1.762a1.071,1.071,0,0,1-.237-.311c-.956-.734-1.927-1.449-2.925-2.123a32.353,32.353,0,0,0-2.93-1.769c-.956-.506-1.953-.933-2.889-1.475-1.615-.935-3.2-2.481-3.135-4.5A2.952,2.952,0,0,1,154.118,131.624Z" transform="translate(-152.998 -125.083)"/><path class="i" d="M182.057,150.58Z" transform="translate(-148.362 -121.005)"/><path class="i" d="M183.553,149.439l.057-.081-.055.078Z" transform="translate(-148.112 -121.201)"/><path class="i" d="M186.517,165.215c-.187-.135-.052-.039,0,0Z" transform="translate(-147.654 -118.676)"/></g></g><g transform="translate(0 33.49)"><path class="i" d="M153.565,167.035c-.34-11.822,1.158-23.8-1.152-35.4-.7-3.5-1.818-7.073-4.291-9.645a9.541,9.541,0,0,0-4.9-2.723c-7.585-1.547-13.167,7.532-16.449,12.925a155.291,155.291,0,0,0-16.932,37.281c-.882,3.042-1.635,6.349-.532,9.318,1.26,3.4,4.65,5.513,8.025,6.825a40.1,40.1,0,0,0,23.559,1.233c3.943-.928,8.006-2.53,10.35-5.832,2.554-3.6,2.493-8.3,2.358-12.763C153.59,167.847,153.577,167.44,153.565,167.035Z" transform="translate(-108.759 -119.095)"/><g transform="translate(8.36 6.945)"><path class="c" d="M156.991,131.624a2.479,2.479,0,0,0-2.4-.421,2.418,2.418,0,0,0-1.343,1.231,28.752,28.752,0,0,0-9.5,5.1c-.136.108-.266.223-.4.333a10.82,10.82,0,0,0-3.118-.5l-.016-.021q-.27-.271-.52-.56-.12-.139-.237-.282l-.092-.115-.031-.042a11.937,11.937,0,0,1-.82-1.254c-.115-.2-.222-.408-.325-.617a7.259,7.259,0,0,0,2.242-6.715.976.976,0,0,0-1.194-.679,1,1,0,0,0-.679,1.194c.009.051.016.1.024.151a6.212,6.212,0,0,1,0,1.346,6.647,6.647,0,0,1-.219.963c-.05.16-.109.317-.171.472-.013.028-.024.057-.038.085-.041.088-.084.174-.129.261-.081.155-.169.309-.263.457-.052.081-.107.162-.161.241s-.241.288-.037.058l-.133.152a12.763,12.763,0,0,1-.318-1.545,12.429,12.429,0,0,1,0-2.987,11.692,11.692,0,0,1,.361-1.631.979.979,0,0,0-.677-1.194.991.991,0,0,0-1.194.677,12.783,12.783,0,0,0-.5,4.245c-.051-.053-.1-.111-.148-.168a3.469,3.469,0,0,1-.3-.52,3.314,3.314,0,0,1-.148-.539c-.007-.08-.015-.161-.016-.241a.97.97,0,1,0-1.941,0,4.22,4.22,0,0,0,2.83,3.886c.02.007.039.007.059.013a13.384,13.384,0,0,0,1.526,3.82,12.4,12.4,0,0,0,.855,1.26c-.168.027-.336.056-.5.086a22.489,22.489,0,0,0-3.4.959,10.074,10.074,0,0,0-4.429-4.076,1.047,1.047,0,0,0-.747-.1.991.991,0,0,0-.58.447.981.981,0,0,0,.348,1.327,9.122,9.122,0,0,1,1.314.746c.1.071.206.145.307.22l.024.019.119.1q.3.249.583.522t.52.55c.083.1.164.193.242.291l.015.017c.032.043.064.086.1.13.122.167.233.342.343.517q-1.188.487-2.348,1.038a42.206,42.206,0,0,0-3.871,2.112.97.97,0,1,0,.98,1.675c.552-.34,1.114-.662,1.681-.977a17.684,17.684,0,0,0-1.155,3.835,19.57,19.57,0,0,0-.262,2.128.977.977,0,0,0,.971.971.993.993,0,0,0,.97-.971c.022-.332.056-.661.1-.991a17.242,17.242,0,0,1,.883-3.525c.053-.143.107-.284.164-.426l.085-.209.028-.065c.029-.067.063-.131.093-.2a4.685,4.685,0,0,0,1.587,1.815.971.971,0,0,0,1.327-.348,1,1,0,0,0-.348-1.328l-.051-.036a3.676,3.676,0,0,1-.491-.487,2.636,2.636,0,0,1-.532-1.261c-.008-.08-.017-.16-.02-.24a1.017,1.017,0,0,0-.06-.3c.2-.089.4-.18.6-.267l.1-.042.3-.122q.3-.122.6-.238c.79-.306,1.589-.593,2.4-.839a18.374,18.374,0,0,1,2.662-.6,11.908,11.908,0,0,1,2.866-.019c.082.013.165.028.248.043a41.24,41.24,0,0,0-5.708,6.7,57.282,57.282,0,0,0-3.878,6.61q-3.542.9-6.987,2.139a1.117,1.117,0,0,0-.147-.06q-.183-.054-.362-.122l-.152-.06.078.03-.046-.02a5.317,5.317,0,0,1-.623-.341c-.1-.066-.205-.139-.306-.211l-.111-.092a5.52,5.52,0,0,1-.525-.516c-.043-.048-.084-.1-.124-.145l-.008-.012.024.036-.028-.039c-.031-.039-.072-.1-.055-.078-.043-.059-.086-.117-.125-.179a5.329,5.329,0,0,1-.37-.672l-.013-.027c-.019-.05-.039-.1-.057-.151q-.066-.181-.118-.365a4.246,4.246,0,0,1-.148-1.7.973.973,0,0,0-.97-.97.994.994,0,0,0-.97.97,6.324,6.324,0,0,0,2.69,5.663c-.31.124-.619.247-.928.376q-1.635.684-3.242,1.434a.976.976,0,0,0-.348,1.328,1,1,0,0,0,1.328.348q.679-.32,1.363-.625.327-.146.657-.289l.3-.13.18-.077c.026-.01.276-.117.124-.053s.048-.02.065-.027l.181-.075.3-.124.016-.007a15.725,15.725,0,0,0-.891,4.5,14.377,14.377,0,0,0,.036,1.923.992.992,0,0,0,.971.971.982.982,0,0,0,.97-.971,14.513,14.513,0,0,1,.066-3.044,14.742,14.742,0,0,1,.585-2.486q.106-.318.226-.632c.036-.1.074-.19.113-.284v0a1.008,1.008,0,0,0,.068-.159c.119-.269.251-.534.387-.795q2.542-.938,5.147-1.691c.219-.063.44-.121.659-.182q-.67,1.442-1.293,2.906c-.879,2.067-1.7,4.161-2.489,6.261q-.31.819-.617,1.64a24.524,24.524,0,0,0-7.871,3.859,25.88,25.88,0,0,0-2.348,1.954.979.979,0,0,0,0,1.372.991.991,0,0,0,1.372,0q.465-.438.949-.85c.147-.125.3-.247.447-.369l.226-.18.007-.006-.02.015c.046-.034.092-.071.138-.106a23.893,23.893,0,0,1,4.252-2.574c.193-.09.385-.179.58-.264.088-.038.179-.073.266-.115-.288.135.071-.028.143-.057.332-.135.668-.259,1.006-.377-.309.842-.615,1.685-.909,2.533a36.84,36.84,0,0,0-1.8,6.805,3.537,3.537,0,0,0,.022,1.937,1.385,1.385,0,0,0,2.517.283,9.469,9.469,0,0,0,1.1-2.416c.194.913.4,1.825.628,2.73a.979.979,0,0,0,1.192.677.991.991,0,0,0,.679-1.194q-.83-3.287-1.346-6.641.6-2.137,1.355-4.224.28-.774.585-1.537.158.471.3.95a23.3,23.3,0,0,1,.929,7.543.979.979,0,0,0,.971.971.99.99,0,0,0,.97-.971,25.586,25.586,0,0,0-1.373-9.236c-.212-.615-.45-1.221-.708-1.82q.927-2.041,2-4.01c.389-.711.795-1.412,1.211-2.105q.343,3.278.448,6.574a89.936,89.936,0,0,1-.191,9.222q-.188,2.606-.529,5.2a.968.968,0,0,0,.284.687.97.97,0,0,0,1.372,0,1.136,1.136,0,0,0,.284-.687,89.83,89.83,0,0,0,.739-9.6c.014-.6.02-1.195.021-1.792.184.155.369.309.545.473A15,15,0,0,1,138.4,170.1l.071.089.125.165q.169.23.329.464.306.447.58.914t.514.953c.077.154.15.309.22.465.035.078.07.155.1.233l.055.132a14.931,14.931,0,0,1,.718,2.326.977.977,0,0,0,1.194.677.992.992,0,0,0,.677-1.194,15.793,15.793,0,0,0-1.7-4.395c.026-.015.05-.031.075-.045.119-.065.241-.128.365-.186.05-.024.1-.046.151-.07l.046-.019a5.954,5.954,0,0,1,2.61-.441.978.978,0,0,0,.971-.97.992.992,0,0,0-.971-.971,7.888,7.888,0,0,0-4.309,1.072,16.12,16.12,0,0,0-1.741-2,16.384,16.384,0,0,0-2.123-1.726l-.016-.008q-.064-2.664-.285-5.319c-.114-1.366-.266-2.729-.442-4.088a12.357,12.357,0,0,1,2.635.049,13.032,13.032,0,0,1,1.811.4c.28.084.556.177.828.28.029.063.058.125.086.188l.038.089c.059.147.118.3.174.445.121.325.23.655.325.988a12.879,12.879,0,0,1,.4,5.368c-.049.333-.108.662-.18.991a.97.97,0,0,0,1.871.516,15.067,15.067,0,0,0-.189-7.271l.059.038c.129.088.257.179.383.271.053.038.1.078.157.117.034.027.068.053.1.081.256.206.506.425.746.651q.4.376.761.786c.126.143.249.29.369.438l.052.065c.059.079.118.158.175.238a1.051,1.051,0,0,0,.58.447.992.992,0,0,0,.748-.1.982.982,0,0,0,.348-1.327,13.75,13.75,0,0,0-3.269-3.222c.161-.032.324-.058.487-.082a9,9,0,0,1,1.63-.043.975.975,0,0,0,.97-.97.993.993,0,0,0-.97-.971,9.9,9.9,0,0,0-4.416.767,14.546,14.546,0,0,0-4.146-1.134,12.617,12.617,0,0,0-1.45-.088c.394-.547.795-1.091,1.206-1.627a60.57,60.57,0,0,1,6.119-6.751q.953-.9,1.944-1.762a1.051,1.051,0,0,0,.237-.311c.956-.734,1.927-1.449,2.926-2.123a32.336,32.336,0,0,1,2.929-1.769c.956-.506,1.953-.933,2.891-1.475,1.613-.935,3.2-2.481,3.134-4.5A2.952,2.952,0,0,0,156.991,131.624Z" transform="translate(-115.966 -125.083)"/><path class="i" d="M123.251,150.58Z" transform="translate(-114.801 -121.005)"/><path class="i" d="M121.755,149.439l-.058-.081.055.078Z" transform="translate(-115.05 -121.201)"/><path class="i" d="M118.795,165.215c.187-.135.052-.039,0,0Z" transform="translate(-115.514 -118.676)"/></g></g><g class="j" transform="translate(44.292)"><path class="i" d="M147.671,91.858h12.293l-.858,6.611H148.529Z" transform="translate(-146.828 -89.96)"/><path class="c" d="M147.671,91.858h12.293l-.858,6.611H148.529Z" transform="translate(-146.828 -89.96)"/><path class="i" d="M148.205,141.333c.8,1.161,2.642,1.472,4.316,1.51.43.008.857,0,1.284-.008.429.012.854.016,1.283.008,1.675-.038,3.516-.349,4.316-1.51a2.989,2.989,0,0,0,.455-1.86,21.848,21.848,0,0,0-.305-2.318q-.745-5.126-1.217-10.27-.466-5.117-.668-10.248-.17-4.452-.142-8.908.005-.7.014-1.4.021-1.364.061-2.725.084-2.848.249-5.7h-8.094q.162,2.782.246,5.569c.031.951.05,1.9.064,2.852.006.43.012.86.014,1.29q.033,4.506-.142,9.016-.2,5.127-.667,10.248-.471,5.143-1.218,10.27a22.467,22.467,0,0,0-.3,2.318A2.988,2.988,0,0,0,148.205,141.333Z" transform="translate(-146.815 -88.993)"/><g class="f" transform="translate(3.189 14.486)"><path class="i" d="M150.814,108.174a10.171,10.171,0,0,0,5.164.041.417.417,0,0,1,.222.8,11.066,11.066,0,0,1-5.607-.041A.417.417,0,0,1,150.814,108.174Z" transform="translate(-149.596 -101.84)"/><path class="i" d="M149.693,102.711c.031.951.05,1.9.064,2.852.006.43.012.86.014,1.29a12.2,12.2,0,0,0,7.445.108q.005-.7.014-1.4.021-1.364.061-2.725A11.279,11.279,0,0,1,149.693,102.711Z" transform="translate(-149.693 -102.711)"/><path class="i" d="M150.814,110.888a10.171,10.171,0,0,0,5.164.041.416.416,0,0,1,.222.8,11.041,11.041,0,0,1-5.607-.041A.416.416,0,0,1,150.814,110.888Z" transform="translate(-149.596 -101.406)"/><path class="i" d="M150.814,113.6a10.171,10.171,0,0,0,5.164.041.416.416,0,0,1,.222.8,11.053,11.053,0,0,1-5.607-.041A.416.416,0,0,1,150.814,113.6Z" transform="translate(-149.596 -100.972)"/><path class="i" d="M150.814,116.316a10.171,10.171,0,0,0,5.164.041.416.416,0,0,1,.222.8,11.066,11.066,0,0,1-5.607-.041A.416.416,0,0,1,150.814,116.316Z" transform="translate(-149.596 -100.538)"/><path class="i" d="M150.814,119.029a10.146,10.146,0,0,0,5.164.041.417.417,0,0,1,.222.8,11.066,11.066,0,0,1-5.607-.041A.417.417,0,0,1,150.814,119.029Z" transform="translate(-149.596 -100.104)"/><path class="i" d="M150.814,121.743a10.159,10.159,0,0,0,5.164.041.416.416,0,0,1,.222.8,11.053,11.053,0,0,1-5.607-.039A.417.417,0,0,1,150.814,121.743Z" transform="translate(-149.596 -99.67)"/><path class="i" d="M150.814,124.457a10.171,10.171,0,0,0,5.164.041.416.416,0,0,1,.222.8,11.04,11.04,0,0,1-5.607-.041A.416.416,0,0,1,150.814,124.457Z" transform="translate(-149.596 -99.236)"/><path class="i" d="M150.814,127.171a10.171,10.171,0,0,0,5.164.041.416.416,0,0,1,.222.8,11.053,11.053,0,0,1-5.607-.041A.416.416,0,0,1,150.814,127.171Z" transform="translate(-149.596 -98.802)"/><path class="i" d="M150.814,129.885a10.172,10.172,0,0,0,5.164.041.416.416,0,0,1,.222.8,11.066,11.066,0,0,1-5.607-.041A.416.416,0,0,1,150.814,129.885Z" transform="translate(-149.596 -98.368)"/><path class="i" d="M150.814,132.6a10.146,10.146,0,0,0,5.164.041.417.417,0,0,1,.222.8,11.066,11.066,0,0,1-5.607-.041A.417.417,0,0,1,150.814,132.6Z" transform="translate(-149.596 -97.934)"/></g><path class="i" d="M149.474,94.972a1.894,1.894,0,0,1,1.769.992h0a2.82,2.82,0,0,0,5.171,0h0a1.894,1.894,0,0,1,1.769-.992,1.7,1.7,0,0,1,1.869,1.466v7.712c0,1.705-1.705,3.095-3.851,3.186l0,.009h-4.751l0-.009c-2.146-.092-3.851-1.481-3.851-3.186V96.438A1.7,1.7,0,0,1,149.474,94.972Z" transform="translate(-146.838 -89.462)"/><path class="i" d="M148.266,92.865H159.6a1.321,1.321,0,0,0,1.322-1.321h0a1.322,1.322,0,0,0-1.322-1.322H148.266a1.322,1.322,0,0,0-1.322,1.322h0A1.321,1.321,0,0,0,148.266,92.865Z" transform="translate(-146.944 -90.222)"/></g><g class="f" transform="translate(2.308 62.229)"><path class="g" d="M159.653,149.267a.657.657,0,0,1,.645.645q.118,5.2.5,10.4.193,2.585.452,5.167.127,1.279.273,2.554c.021.184.043.369.065.552l.035.277.014.11.009.065c.052.382.11.763.179,1.143a15.514,15.514,0,0,0,.532,2.149c.058.174.121.347.187.517l.041.1.035.086c.035.08.07.159.107.238a8.684,8.684,0,0,0,.537.991c.082.131.168.259.259.385.041.058.085.115.126.173l.009.013.006.008c.03.037.059.074.089.11a8.64,8.64,0,0,0,.637.7,9.484,9.484,0,0,0,.721.643l.087.068c.056.048.118.089.177.132.14.1.283.2.429.3a13.229,13.229,0,0,0,1.678.931c.146.068.295.133.443.2l.013.006.1.043.249.1c.312.123.626.235.944.342a30.643,30.643,0,0,0,4.081,1.008q.616.113,1.234.211c.205.032.412.065.618.094l.31.044.088.012.144.02q1.258.164,2.522.26a47.929,47.929,0,0,0,5.065.118c.418-.012.834-.03,1.252-.053a.649.649,0,0,1,.644.645.659.659,0,0,1-.644.645,48.955,48.955,0,0,1-10.4-.55,24.791,24.791,0,0,1-8.216-2.489,10.658,10.658,0,0,1-3.1-2.53,10.55,10.55,0,0,1-1.988-4.126,34.578,34.578,0,0,1-.72-4.743q-.282-2.612-.5-5.229-.43-5.267-.582-10.551c-.013-.427-.023-.854-.034-1.281A.652.652,0,0,1,159.653,149.267Z" transform="translate(-103.031 -143.009)"/><path class="i" d="M111.336,167.678c.931-3.764,1.943-7.514,3.095-11.216a100.148,100.148,0,0,1,4.074-10.975q.291-.651.592-1.3a.647.647,0,0,1,.882-.232.664.664,0,0,1,.232.883c-.813,1.74-1.5,3.371-2.188,5.158s-1.31,3.569-1.894,5.377c-1.174,3.624-2.178,7.3-3.126,10.984-.238.924-.486,1.849-.681,2.783q-.075.353-.135.708c-.043.254-.065.4-.087.609a9.585,9.585,0,0,0-.057,1.413,5.241,5.241,0,0,0,.189,1.292q.075.285.176.563c.014.036.027.072.041.108l.039.094c.032.075.066.15.1.224a7.208,7.208,0,0,0,.58.982c.05.071.1.14.153.21l.039.05c.029.038.06.075.09.113q.184.223.383.434a10.232,10.232,0,0,0,.846.8q.111.1.226.188l.115.092.046.036q.228.172.46.336a17.636,17.636,0,0,0,2.117,1.25q.579.294,1.174.552l.173.074.031.013.3.123q.3.12.6.231c.812.3,1.639.554,2.475.772s1.692.4,2.548.553q.645.115,1.294.206l.2.028.042.006.307.039c.218.027.436.053.654.077,1.747.194,3.5.291,5.261.343q.654.019,1.311.031a.645.645,0,1,1,0,1.29,55.073,55.073,0,0,1-10.786-1.05,27.269,27.269,0,0,1-5.121-1.649,17.408,17.408,0,0,1-4.362-2.649,8.447,8.447,0,0,1-2.726-4.005A11.633,11.633,0,0,1,111.336,167.678Z" transform="translate(-110.748 -143.871)"/></g></g><g class="j" transform="translate(5.745 6.589)"><circle class="i" cx="3.392" cy="3.392" r="3.392" transform="translate(102.624)"/><circle class="i" cx="3.392" cy="3.392" r="3.392"/><circle class="i" cx="3.392" cy="3.392" r="3.392" transform="translate(102.624 123.253)"/><circle class="i" cx="3.392" cy="3.392" r="3.392" transform="translate(0 123.253)"/></g></g><path class="k" d="M547.035,462.336H40.781a.965.965,0,0,0-.965.965h0a.964.964,0,0,0,.965.965H547.035A.965.965,0,0,0,548,463.3h0A.966.966,0,0,0,547.035,462.336Z" transform="translate(0 63.719)"/><g transform="translate(39.988 71.096)"><path class="k" d="M176.15,189.2c3.631-7.549,3.109-16.954.057-24.813l-.094-.24a95.71,95.71,0,0,1-6.683-36.4,109.327,109.327,0,0,0-3.177-28.274,56.416,56.416,0,0,0-6.514-16.018,26.926,26.926,0,0,0-4.122-5.1c-11.661-12.164-32.982-11.1-42.456,4.593a56.628,56.628,0,0,0-6.294,16.127,111.736,111.736,0,0,0-2.607,32.6,72.993,72.993,0,0,1-5.79,32.628q-.343.813-.652,1.645c-2.943,7.908-3.336,17.322.4,24.808,1.493,2.993,3.57,5.57,5.286,8.412s3.1,6.131,2.917,9.545-2.352,6.872-5.41,7.313a9.085,9.085,0,0,0,9.525-2.32,46.647,46.647,0,0,0,3.561,8.914c-.181.137-.356.281-.544.408.246,0,.491-.022.738-.027,4.811,9,12.427,16.185,21.311,19.751a21.46,21.46,0,0,1-4.049-13.59,16.851,16.851,0,0,0,5.4-3.266,16.958,16.958,0,0,0,6.413,4.067,21.2,21.2,0,0,1-3.882,11.859,42.73,42.73,0,0,0,20.063-18.334c.575.021,1.151.045,1.726.034a13.455,13.455,0,0,1-1.234-.919,46.742,46.742,0,0,0,4.11-10.248,9.069,9.069,0,0,0,9.557,2.159c-3.063-.389-5.28-3.81-5.51-7.22s1.11-6.722,2.786-9.594S174.7,192.22,176.15,189.2Z" transform="translate(-31.081 -70.101)"/><path class="k" d="M82.718,465.711H77.313v-5.289a.776.776,0,0,0-1.462-.371l-2.958,5.463H39.964c1.763-2.877,5.034-4.06,8.085-4.489a18.028,18.028,0,0,0,12.481-8.259l6.206-9.674H79.413C88.646,445.448,82.718,465.711,82.718,465.711Z" transform="translate(-39.964 -10.454)"/><path class="k" d="M169.438,465.514h-28.87l-5.405-8.177v8.177h-4.918c-1.09-17.758,2.1-21.621,3.851-22.421h11.112c5.011,10.9,15.508,16.32,24.695,20.159A1.178,1.178,0,0,1,169.438,465.514Z" transform="translate(-25.562 -10.454)"/><path class="l" d="M177.064,319.585l-5.138,63.32-16.714,98.048c.22.568.452,1.125.708,1.67H144.806a1.739,1.739,0,0,1,1.067-.2c-3.433-41.815-5.776-80.95,0-100.263l-2.459-121.4H133.59L108.8,378.23c-3.642,32.048-15.926,70-34.194,104.2a6.548,6.548,0,0,1,1.114.2H63.044l.754-1.183L86.892,375.284,98.2,267.041c3.932-45.631,21.134-71.138,21.134-71.138h46.687l4.222,19.591A357.3,357.3,0,0,1,177.064,319.585Z" transform="translate(-36.273 -49.983)"/><path class="i" d="M168.22,166.173l-3.807,7.748-4.918,32.944H112.8l-8.89-65.628a8.076,8.076,0,0,1,5.617-8.793c14.523-4.485,26.3-6.946,40.083-3.481a41.859,41.859,0,0,1,11.85,4.9l7.421,21.494A14.065,14.065,0,0,1,168.22,166.173Z" transform="translate(-29.749 -60.949)"/><path class="i" d="M138.108,159.517a19.831,19.831,0,0,1-20.454,10.607c-.73-.108-1.045,1.009-.309,1.118a21.006,21.006,0,0,0,21.763-11.14C139.448,159.44,138.447,158.852,138.108,159.517Z" transform="translate(-27.657 -55.849)"/><g transform="translate(78.157 5.711)"><path class="m" d="M124.413,137.993h0a6.693,6.693,0,0,0,12.571-2.212l.086-.647a18.555,18.555,0,0,0,.724-6.678l-.166-2.365v-.4l-.106-7.647-15.774-1.715.23,6.317c.043,1.146.1,2.336.205,3.5.01.274.016,1.571.016,3.022a7.348,7.348,0,0,0,.044.977A18.534,18.534,0,0,0,124.413,137.993Z" transform="translate(-105.042 -68.42)"/><path class="n" d="M122.868,130.23a18.692,18.692,0,0,0,7.174-.5l.087-.023a10.33,10.33,0,0,0,7.415-10.193l-.021-1.472-15.774-1.715.23,6.317c.043,1.146.1,2.336.205,3.5.012.293.016,1.749.016,3.315Z" transform="translate(-105.042 -68.42)"/><path class="m" d="M156.724,96.543a5.2,5.2,0,0,0-2.954.929,40.252,40.252,0,0,0-8.953-17.009,13.647,13.647,0,0,0-5.8-4.441,9.855,9.855,0,0,0-3.451-.949q-1.183-.075-2.336-.032c-.769.007-1.546.051-2.333.137a9.8,9.8,0,0,0-3.406,1.1,13.633,13.633,0,0,0-5.592,4.693,40.244,40.244,0,0,0-8.192,17.388,5.193,5.193,0,0,0-2.993-.8c-3.056.333-3.95,5.209-3.026,8.87,1.173,4.641,4.727,6.025,8.013,6.881a34.07,34.07,0,0,0,6.247,8.5,18.435,18.435,0,0,0,9.755,5.946c.111.026.223.048.334.071.219.044.434.106.657.14.15.023.3.019.452.035.128.013.254.019.38.028.292.019.583.03.877.022s.586-.03.876-.06c.126-.015.253-.027.378-.045.15-.023.3-.026.451-.056.222-.044.433-.115.651-.168.109-.028.22-.056.331-.086a18.446,18.446,0,0,0,9.485-6.375,34.034,34.034,0,0,0,5.861-8.768c3.245-1,6.734-2.541,7.7-7.23C160.9,101.573,159.792,96.741,156.724,96.543Z" transform="translate(-107.345 -75.025)"/><g transform="translate(16.571 18.598)"><path class="n" d="M136.874,107.059a8.233,8.233,0,0,0-1.073-1.6,11.707,11.707,0,0,1-1.1-1.866,12.152,12.152,0,0,1-1.112-4.13.756.756,0,0,0-.84-.6.694.694,0,0,0-.554.82,13.484,13.484,0,0,0,2.545,6.682c.552.759,1.359,1.577.566,2.411s-2.153.61-3.2.477c-.915-.116-1.009,1.312-.1,1.428a5.383,5.383,0,0,0,3.981-.559A2.55,2.55,0,0,0,136.874,107.059Z" transform="translate(-120.075 -89.812)"/><path class="k" d="M123.974,100.343c.18,1.322,1.053,2.343,1.949,2.279s1.478-1.187,1.3-2.51-1.053-2.343-1.95-2.28S123.793,99.019,123.974,100.343Z" transform="translate(-121.263 -89.977)"/><path class="k" d="M136.16,100.284c.181,1.323,1.053,2.343,1.95,2.279s1.477-1.187,1.3-2.509-1.053-2.343-1.951-2.28S135.98,98.961,136.16,100.284Z" transform="translate(-119.314 -89.986)"/><path class="k" d="M136.7,91.859a1.585,1.585,0,0,1,.934-.1,4.544,4.544,0,0,1,3.69,4.237,2.384,2.384,0,0,0-.478-.815c-.013-.013-.027-.019-.041-.031a2.119,2.119,0,0,0-.393-.39,4.469,4.469,0,0,0-1.891-.677,6.62,6.62,0,0,1-1.954-.545.837.837,0,0,1-.522-.813A1.193,1.193,0,0,1,136.7,91.859Z" transform="translate(-119.328 -90.952)"/><path class="k" d="M126.761,91.4a1.683,1.683,0,0,0-.9-.321,4.027,4.027,0,0,0-4.226,3.293,2.072,2.072,0,0,1,.585-.688.306.306,0,0,1,.044-.021,1.816,1.816,0,0,1,.441-.291,4.194,4.194,0,0,1,1.954-.218,6.4,6.4,0,0,0,2-.073.743.743,0,0,0,.629-.676A1.344,1.344,0,0,0,126.761,91.4Z" transform="translate(-121.632 -91.059)"/><path class="n" d="M126.5,109.794a8.964,8.964,0,0,0,8.233,1.943.657.657,0,0,1,.305,1.277,10.317,10.317,0,0,1-9.5-2.324C124.911,110.123,125.874,109.232,126.5,109.794Z" transform="translate(-121.04 -88.092)"/></g></g><path class="o" d="M128.911,127.393s-17.16,2.743-27,9.906l10.62,57.89a32.235,32.235,0,0,1-2.362,19.1c-16.689,36.9-24.581,92.162-30.376,151.8,18.25,4.574,32.523.834,42.223-12.467a43.815,43.815,0,0,0,8.1-26.135c1.743-35.209,12.354-88.21,12.354-88.21,2.837-37.187,3.592-72.248-2.853-99.951C139.613,139.324,130.509,135.062,128.911,127.393Z" transform="translate(-33.595 -60.939)"/><path class="p" d="M119.893,129.051l-.509-4.658a1.969,1.969,0,0,1,3.142-1.581h0c7.65,3.549,10.756,17.307,10.756,17.307S123.357,136.748,119.893,129.051Z" transform="translate(-27.264 -61.734)"/><path class="o" d="M173.121,368.044a54.308,54.308,0,0,1-9.6-5.1A30.567,30.567,0,0,1,149.6,341.307a36.843,36.843,0,0,1-.4-5.837l-14.645-98.343-3.186-97.705s5.862-9.922,4.89-12.637c8.006.853,17.341,5.007,20.807,7.169l7.421,21.494a14.065,14.065,0,0,1-.666,10.813l-3.807,7.748-3.494,23.4a38.154,38.154,0,0,0,1.144,16.531C169.12,252.413,173.121,368.044,173.121,368.044Z" transform="translate(-25.348 -61.037)"/><g transform="translate(117.947 179.858)"><path class="q" d="M145.916,259.006q-1.207-9.691-2.417-19.382a.58.58,0,0,1,1.151-.15q1.2,9.622,2.4,19.243a59.265,59.265,0,0,0,10.592-1.09.6.6,0,0,1-.429-.436q-1.889-7.577-3.026-15.312a.581.581,0,0,1,1.151-.15q1.134,7.727,3.026,15.313a.449.449,0,0,1-.116.458,58.257,58.257,0,0,0,8.695-2.485q-2.833-11.671-5.666-23.341a.547.547,0,0,1-.007-.206,107.079,107.079,0,0,0-17.388,2.61.662.662,0,0,1-.4.048.421.421,0,0,1-.275-.147.552.552,0,0,1-.182-.322l-1.364-7.862c-.129-.735,1.022-.884,1.149-.148l1.253,7.211a107.125,107.125,0,0,1,17.451-2.573.609.609,0,0,1,.588.842.586.586,0,0,1,.325.4q2.838,11.688,5.674,23.377a.456.456,0,0,1-.218.538.5.5,0,0,1-.334.589,59.775,59.775,0,0,1-21.048,3.854A.644.644,0,0,1,145.916,259.006Z" transform="translate(-141.65 -225.163)"/><path class="q" d="M147.622,238.207a26.731,26.731,0,0,0,11.579-2.184.58.58,0,0,1,.45,1.069,28.071,28.071,0,0,1-12.191,2.264C146.716,239.328,146.882,238.179,147.622,238.207Z" transform="translate(-140.798 -223.434)"/></g><path class="p" d="M140.2,129.007V123.72c0-1.617-1.24-2.545-2.113-1.581h0c-3.454,3.809-5.823,9.4-6.641,15.679l-.08,2.409A15.471,15.471,0,0,0,140.2,129.007Z" transform="translate(-25.348 -61.842)"/><g transform="translate(64.922 179.858)"><path class="q" d="M118.138,259.006q1.209-9.691,2.417-19.382a.58.58,0,0,0-1.149-.15L117,258.717a59.265,59.265,0,0,1-10.592-1.09.6.6,0,0,0,.429-.436q1.89-7.577,3.026-15.312a.58.58,0,0,0-1.149-.15q-1.136,7.727-3.027,15.313a.452.452,0,0,0,.117.458,58.231,58.231,0,0,1-8.7-2.485q2.834-11.671,5.666-23.341a.547.547,0,0,0,.007-.206,107.06,107.06,0,0,1,17.388,2.61.663.663,0,0,0,.4.048.421.421,0,0,0,.275-.147.552.552,0,0,0,.182-.322q.682-3.93,1.365-7.862c.128-.735-1.023-.884-1.151-.148l-1.253,7.211a107.125,107.125,0,0,0-17.451-2.573.61.61,0,0,0-.588.842.586.586,0,0,0-.325.4q-2.836,11.688-5.674,23.377a.455.455,0,0,0,.219.538.5.5,0,0,0,.333.589,59.775,59.775,0,0,0,21.048,3.854A.644.644,0,0,0,118.138,259.006Z" transform="translate(-95.936 -225.163)"/><path class="q" d="M114.578,238.207A26.731,26.731,0,0,1,103,236.023a.58.58,0,0,0-.45,1.069,28.071,28.071,0,0,0,12.191,2.264C115.483,239.328,115.319,238.179,114.578,238.207Z" transform="translate(-94.933 -223.434)"/></g><g transform="translate(48.433 70.988)"><path class="o" d="M109.787,167.306l-2.127,8.778L95.7,225.566a12.5,12.5,0,0,1-9.083-3.618,16.624,16.624,0,0,1-4.676-14.638c3.338-21.289,7.173-41.088,11.925-58.274.128-.458.267-.9.42-1.363a24.637,24.637,0,0,1,9.351-12.332,26.466,26.466,0,0,1,8.842-4.039Z" transform="translate(-81.719 -131.302)"/></g><g transform="translate(42.215 118.524)"><path class="r" d="M120.163,207.729l-21.468,6.006-22.336-41.45,6.953.449,15.8,1.028,7.013.459Z" transform="translate(-76.359 -172.284)"/><g transform="translate(12.848 16.979)"><path class="m" d="M114.382,187.462l-2.887-.524a.905.905,0,0,0-.948,1.34l.727,1.271-5.774,2.887a4.4,4.4,0,0,0-2.431,3.881l-.109,8.872s-4.367,2.359-11.272-3.4c-4.33,3.141-5.231,7.646-3.258,13.295,0,0,8.049,6.167,22.139-3.7l9.117-6a4.473,4.473,0,0,0,2.015-3.737v-4.777a4.854,4.854,0,0,0-1.049-3.012l-3.985-5.028A3.778,3.778,0,0,0,114.382,187.462Z" transform="translate(-87.436 -186.923)"/><g transform="translate(20.103 1.43)"><path class="n" d="M109.357,189.612c.66-.471,1.141.094,1.24.636a3.105,3.105,0,0,1-1,2.349,17.947,17.947,0,0,1-4.527,3.458.637.637,0,0,0,.644,1.1c2.079-1.264,4.371-2.646,5.628-4.811a3.065,3.065,0,0,0,.073-3.353,1.958,1.958,0,0,0-2.959-.278c-.559.6.34,1.5.9.9Z" transform="translate(-104.767 -188.155)"/></g></g><path class="i" d="M94.3,182.268c-3.811,1.715-8.7-.917-10.924-5.876a12.858,12.858,0,0,1-1.028-3.721l15.8,1.028C98.644,177.48,97.217,180.961,94.3,182.268Z" transform="translate(-75.4 -172.222)"/></g><path class="q" d="M138.314,158.729c-.917-6.9-3.007-13.565-5.111-20.178-.225-.709-1.346-.406-1.118.309a132.129,132.129,0,0,1,4.755,17.829,51.129,51.129,0,0,1,.774,9.205,47.3,47.3,0,0,1-1.114,9.152c-.624,2.969-1.383,5.911-1.912,8.9a70.343,70.343,0,0,0-.957,9.1c-.278,6.226.037,12.471.23,18.7q.327,10.624.656,21.247c.023.745,1.183.748,1.16,0q-.3-9.547-.59-19.094c-.195-6.287-.517-12.589-.363-18.88a74.779,74.779,0,0,1,.756-9.373c.456-3.011,1.188-5.967,1.847-8.937a56.369,56.369,0,0,0,1.378-8.871A47.952,47.952,0,0,0,138.314,158.729Z" transform="translate(-25.237 -59.219)"/><path class="q" d="M111.966,146.85a108.267,108.267,0,0,1-7.519,24.284c-.3.676.7,1.267,1,.586a109.49,109.49,0,0,0,7.637-24.561C113.22,146.429,112.1,146.115,111.966,146.85Z" transform="translate(-29.661 -57.895)"/><g transform="translate(128.015 71.266)"><path class="m" d="M171.263,275.56l1.182,22.093a6.429,6.429,0,0,1-1.965,5.015l-7.61,7.179a1.054,1.054,0,0,1-1.776-.756c-.058-2.01.861-5.434,5.971-9.748L166.8,289.3s-.21,10.3-1.871,10.635c0,0-2.764,1.265-1.854-11.125,0,0-1.761-6.856,1.786-10.8l-5.606-22.41,13.208-.631Z" transform="translate(-148.902 -111.804)"/><path class="o" d="M150.33,131.542l.162,31.2L161.06,293s11.1,2.294,15.469-3.491l-8.5-127.954a51.687,51.687,0,0,0-3.767-16.645C161.125,137.485,156.716,132.569,150.33,131.542Z" transform="translate(-150.33 -131.542)"/><path class="q" d="M159.6,148.125a34.257,34.257,0,0,1-2.018-7.358c-.09-.731-1.252-.74-1.16,0,.536,4.33,2.457,8.255,3.687,12.4a18.91,18.91,0,0,1,.92,6.327,16.618,16.618,0,0,1-1.8,6.4,51.182,51.182,0,0,1-4,6.489c-.289.421.087.815.49.835a115.125,115.125,0,0,0-3.738,31.365q.094,4.687.575,9.354a.581.581,0,0,0,.241.425q2.676,14.495,4.461,29.135,1.811,14.958,2.672,30.009.487,8.515.669,17.043a.58.58,0,0,0,1.16,0q-.329-15.2-1.62-30.369-1.282-15.019-3.513-29.937-1.27-8.5-2.848-16.96a.52.52,0,0,0-.14-.268,114.026,114.026,0,0,1,1.459-31.863q.873-4.605,2.125-9.127a.533.533,0,0,0-.052-.427c2.214-3.276,4.313-6.762,4.88-10.723C162.686,156.439,161.077,152.22,159.6,148.125Z" transform="translate(-150.07 -130.155)"/></g><path class="q" d="M135.784,166.588c-5.722-7.255-15.321-11.52-18.849-20.464a.633.633,0,0,0-.119-.184,34.474,34.474,0,0,1,2.224-4.866.54.54,0,0,0-.1-.674.576.576,0,0,0-.383-.679,22.98,22.98,0,0,1-6.918-3.767,63.177,63.177,0,0,1,8.871-6.45.58.58,0,0,0-.586-1,64.745,64.745,0,0,0-9.512,6.975.534.534,0,0,0,.146.893.457.457,0,0,0,.155.326,24.566,24.566,0,0,0,7.208,4.017,36.157,36.157,0,0,0-2.382,5.3.586.586,0,0,0,.4.713h0c3.723,9,13.2,13.3,19.014,20.68C135.426,167.994,136.241,167.168,135.784,166.588Z" transform="translate(-28.728 -60.776)"/><path class="q" d="M150.485,136.383a34.932,34.932,0,0,0-8.64-8.564.5.5,0,0,0-.761.206c.023-.158.061-.311.081-.47.089-.739-1.072-.732-1.16,0a16.345,16.345,0,0,1-6.628,11.189c-.6.43-.023,1.437.586,1a17.6,17.6,0,0,0,7.049-11.306.577.577,0,0,0,.247.382,33.312,33.312,0,0,1,7.856,7.672,41.2,41.2,0,0,1-5.525,4.8.6.6,0,0,0-.209.793.582.582,0,0,0,.231.2c.022.016.037.041.063.053a37.73,37.73,0,0,0,5.576,2.072,42.708,42.708,0,0,1-8.878,22.217c-.456.58.36,1.407.82.82a44.1,44.1,0,0,0,9.226-23.1.461.461,0,0,0-.209-.457.529.529,0,0,0-.406-.516,36.047,36.047,0,0,1-4.783-1.719,42.907,42.907,0,0,0,5.014-4.444C150.424,137.172,150.771,136.788,150.485,136.383Z" transform="translate(-25.066 -61.001)"/><path class="q" d="M133.618,139.392a16.272,16.272,0,0,1-13.1-9.334c-.305-.676-1.391-.264-1.082.418a17.438,17.438,0,0,0,13.986,10.06C134.161,140.608,134.361,139.464,133.618,139.392Z" transform="translate(-27.264 -60.568)"/><path class="k" d="M153,87.873a8.82,8.82,0,0,0-3.774-3.924A11.5,11.5,0,0,0,144.8,73.915c-3.7-2.821-8.612-3.331-13.138-2.646a30.436,30.436,0,0,0-21.291,14.683,33.382,33.382,0,0,0-2.887,26.569c1.719,5.367,4.861,10.875,3.291,16.292-.825,2.843-2.845,5.111-4.156,7.745-2.141,4.308-2.284,9.492-1.158,14.2a43.506,43.506,0,0,0,6.007,13.062c1.951,3.061,4.12,6.122,4.831,9.728s-.55,7.966-3.8,9.365a15.24,15.24,0,0,0,10.8-5.877,16.8,16.8,0,0,0,3.273-12.3c-1.218-9.246-9.915-16.6-9.2-25.907.529-6.874,6.225-12.713,5.716-19.589-.356-4.8-3.738-8.978-3.863-13.8-.109-4.244,2.416-8.182,5.664-10.715s7.161-3.907,11-5.24l-2.814,4.519a18.23,18.23,0,0,0,2.022-.883,26.366,26.366,0,0,0,6.949-1.184,13.4,13.4,0,0,0,2.248-1.032c.993,3.167,2.92,5.968,4.329,8.982,1.594,3.409,2.469,7.673.525,10.875a18.932,18.932,0,0,0,5.772-10.74A19.489,19.489,0,0,0,153,87.873Z" transform="translate(-29.601 -69.958)"/><path class="s" d="M117.265,141.026c-.34-.665-1.341-.079-1,.586,3.227,6.3,5.507,14.006,2.055,20.713-.341.662.66,1.25,1,.586C122.978,155.8,120.7,147.725,117.265,141.026Z" transform="translate(-27.774 -58.806)"/><g transform="translate(75.463 2.91)"><path class="s" d="M137.711,79.329A23.762,23.762,0,0,0,127.4,81.947a37.424,37.424,0,0,0-8.268,5.114,17.1,17.1,0,0,0-5.259,7.3c-1.2,3.419-1.067,7.146-.754,10.7.374,4.243,1.014,8.576-.1,12.766a.58.58,0,0,0,1.118.307c1.861-7.021-1.078-14.181.258-21.23,1.21-6.382,6.5-10.32,11.944-13.142,3.528-1.828,7.334-3.316,11.366-3.274A.58.58,0,0,0,137.711,79.329Z" transform="translate(-103.763 -71.536)"/><path class="s" d="M138.437,80.592a10.969,10.969,0,0,1-3.5,5.577.58.58,0,0,0,.82.82,12.046,12.046,0,0,0,3.8-6.088A.581.581,0,0,0,138.437,80.592Z" transform="translate(-100.266 -71.4)"/><path class="s" d="M141.915,86.374c-.491-.565-1.307.259-.82.82a15.823,15.823,0,0,1,3.843,10.181.58.58,0,0,0,1.16,0A17.082,17.082,0,0,0,141.915,86.374Z" transform="translate(-99.279 -70.439)"/><path class="s" d="M142.94,81.458c-.565-.483-1.388.334-.82.82a18.954,18.954,0,0,1,6.5,12.115c.085.733,1.246.741,1.16,0A20.124,20.124,0,0,0,142.94,81.458Z" transform="translate(-99.122 -71.219)"/><path class="s" d="M145.269,77.681c-4.382-5.518-12.434-6.066-18.664-3.866a27.182,27.182,0,0,0-14.927,12.541,19.147,19.147,0,0,0-2.1,11.255c.1.728,1.259.739,1.16,0-.858-6.456,2.126-12.614,6.8-16.938,4.652-4.306,11.07-7.42,17.525-6.87a13.326,13.326,0,0,1,9.392,4.7C144.913,79.086,145.728,78.26,145.269,77.681Z" transform="translate(-104.32 -72.61)"/><path class="s" d="M132.306,76.136a15.25,15.25,0,0,0-12.625,7.35.58.58,0,0,0,1,.585A14.053,14.053,0,0,1,132.306,77.3.58.58,0,0,0,132.306,76.136Z" transform="translate(-102.693 -72.046)"/><path class="s" d="M116.126,161.171c-5.217-6.753-9.54-15.238-7.572-24,.917-4.083,2.822-7.857,3.12-12.084.282-3.981-.514-7.943-1.2-11.845-.785-4.488-1.482-9.131-.145-13.586a.58.58,0,0,0-1.118-.309c-2.423,8.072,1.422,16.172,1.356,24.289a22.269,22.269,0,0,1-.994,6.254c-.634,2.123-1.445,4.191-1.988,6.341a23.7,23.7,0,0,0,.523,12.838,40.951,40.951,0,0,0,7.013,12.692C115.574,162.339,116.582,161.763,116.126,161.171Z" transform="translate(-104.718 -68.4)"/><path class="s" d="M118.238,120.376a15.316,15.316,0,0,0,1.008-9.5.58.58,0,0,0-1.118.309c1.594,6.027-2.516,11.535-4.644,16.852-2.263,5.655-1.942,11.786-.477,17.6a99.427,99.427,0,0,0,3.254,9.921c.255.695,1.377.394,1.119-.309-2.121-5.777-4.3-11.706-4.4-17.936a22.925,22.925,0,0,1,1.573-8.847C115.646,125.712,117.149,123.137,118.238,120.376Z" transform="translate(-103.932 -66.556)"/><path class="s" d="M144.917,113.681a23.255,23.255,0,0,0-1.784,15.182c.161.728,1.279.42,1.118-.309a21.974,21.974,0,0,1,1.667-14.288C146.243,113.6,145.243,113.009,144.917,113.681Z" transform="translate(-99.017 -66.09)"/><path class="s" d="M156.057,104.382c-.1-.737-1.22-.423-1.118.309a99.584,99.584,0,0,1-.372,29.861c-.121.73,1,1.044,1.118.309A101.433,101.433,0,0,0,156.057,104.382Z" transform="translate(-97.102 -67.597)"/><path class="s" d="M152.1,127.357a40.732,40.732,0,0,1-.636-14.611c.1-.73-1.016-1.045-1.118-.307a42.292,42.292,0,0,0,.636,15.227C151.145,128.393,152.263,128.084,152.1,127.357Z" transform="translate(-97.842 -66.308)"/><path class="s" d="M150.862,88.805A44.649,44.649,0,0,0,145.623,78.8c-.425-.608-1.43-.029-1,.585a43.515,43.515,0,0,1,5.121,9.729C150,89.806,151.124,89.506,150.862,88.805Z" transform="translate(-98.708 -71.662)"/><path class="s" d="M105.741,110.593l-.717,16.162c-.032.746,1.127.745,1.16,0l.717-16.162C106.934,109.847,105.775,109.848,105.741,110.593Z" transform="translate(-105.023 -66.626)"/></g></g><g transform="translate(199.887 63.879)"><path class="k" d="M294.527,112.323c1.079-.754,2.371-1.4,3.354-2.231a6.784,6.784,0,0,0,1.067-8.851c-1.539-2.116-4.279-3.233-5.475-5.561-1.565-3.049.146-6.7.144-10.124a10.2,10.2,0,0,0-5.13-8.718c-3.327-1.851-7.464-1.687-10.863-3.4-3.754-1.894-6.128-5.826-9.813-7.848-4.311-2.366-9.686-1.806-14.359-1.082-5.032.779-10.476,1.342-14.95,3.955-2.526,1.474-4.92,4.323-3.874,7.055.437,1.14,1.416,2.024,1.774,3.192a4.639,4.639,0,0,1-1.7,4.611,19.89,19.89,0,0,1-4.51,2.547,28.79,28.79,0,0,0-11.508,10.317c-1.407,2.212-2.371,5.449-.413,7.193,1.439,1.282,3.751,1,5.33,2.106,1.626,1.14,2,3.43,1.687,5.391s-1.156,3.813-1.417,5.781.247,4.259,1.958,5.267c3.058,1.8,7.523-1.61,10.307.588,2.224,1.757,1.254,5.5,2.868,7.827,1.72,2.48,5.512,2.251,8.267,1.022s5.3-3.206,8.312-3.421c3.085-.22,5.94,1.457,8.675,2.9s5.924,2.732,8.845,1.716c2.964-1.03,4.855-4.2,7.886-5.015,2.807-.757,5.825.717,8.666.1A6.274,6.274,0,0,0,294,119.648c-.552-1.464-1.691-2.8-1.565-4.365A4.105,4.105,0,0,1,294.527,112.323Z" transform="translate(-171.525 -63.879)"/><g transform="translate(58.354 8.647)"><path class="t" d="M265.093,134.378v.066a26.26,26.26,0,0,1-.459,4.489c-.953,5.55-3.361,7.708-6.449,8.463-6.929,1.687-13.554-3.832-13.641-10.959l-.274-24.864a7.347,7.347,0,0,1,7.247-7.434l5.89-.065a7.353,7.353,0,0,1,7.423,7.269Z" transform="translate(-225.545 -66.098)"/><path class="u" d="M264.605,134.123c-.274,0-.536,0-.8-.01-9.229-.481-16.334-8.419-16.434-17.66l-.055-4.674c-.033-3.3,3.219-6,7.27-6.043l5.89-.066a8.553,8.553,0,0,1,1.51.109,7.3,7.3,0,0,1,2.355,5.31Z" transform="translate(-225.058 -65.843)"/><path class="t" d="M286.4,103.653c-.873,5.143-4.569,7-8.072,8.238-.045.012-.082.03-.128.042a37.513,37.513,0,0,1-6.113,9.889,20.348,20.348,0,0,1-10.2,7.411c-.119.031-.248.073-.368.1-.239.065-.469.155-.708.211-.166.043-.333.049-.489.081s-.277.037-.415.06c-.324.049-.647.087-.971.108s-.64.013-.965,0l-.418-.013c-.168-.014-.335,0-.5-.021-.242-.029-.486-.086-.728-.133-.122-.014-.252-.037-.373-.061a20.35,20.35,0,0,1-10.987-6.167,37.582,37.582,0,0,1-7.225-9.118c-.122-.023-.253-.057-.375-.089-3.545-.826-7.307-2.284-8.728-7.183-1.166-4-.376-9.407,2.986-9.893a5.723,5.723,0,0,1,3.33.759,44.268,44.268,0,0,1,8.337-19.488,15.011,15.011,0,0,1,5.978-5.4,10.743,10.743,0,0,1,3.7-1.343,24.471,24.471,0,0,1,2.572-.245,24.028,24.028,0,0,1,2.578-.06,11.022,11.022,0,0,1,3.836.908,14.989,14.989,0,0,1,6.564,4.668,44.406,44.406,0,0,1,10.548,18.387,5.758,5.758,0,0,1,3.22-1.139C285.676,94.266,287.091,99.544,286.4,103.653Z" transform="translate(-228.127 -71.334)"/><path class="k" d="M243.393,95.957l-.01-.007a.6.6,0,0,0-.19-.031,7.2,7.2,0,0,1,5.247-4.507,2.139,2.139,0,0,1,1.129.017.917.917,0,0,1,.641.851c-.027.422-.419.72-.8.908a11.191,11.191,0,0,1-2.507.764,7.628,7.628,0,0,0-2.454.9A3.3,3.3,0,0,0,243.393,95.957Z" transform="translate(-225.718 -68.134)"/><path class="k" d="M259.681,90.867a2.145,2.145,0,0,1,1.127-.059,7.178,7.178,0,0,1,5.513,4.638,3.507,3.507,0,0,0-.774-.88c-.02-.015-.038-.022-.058-.035a3.534,3.534,0,0,0-.573-.429,7.587,7.587,0,0,0-2.485-.808,11.112,11.112,0,0,1-2.532-.674c-.385-.175-.788-.459-.829-.879A.916.916,0,0,1,259.681,90.867Z" transform="translate(-223.179 -68.227)"/><path class="u" d="M254.6,106.733a4.658,4.658,0,0,0,2.3-.128,3.806,3.806,0,0,0,1.035-.5c.053-.038.174-.123.195-.191-.019.059-.017,0-.021-.032a2.348,2.348,0,0,0-.255-.612A31.043,31.043,0,0,0,255.3,100.6a.7.7,0,0,1,.093-.964.689.689,0,0,1,.964.093c.619.93,1.2,1.888,1.726,2.875q.374.7.711,1.422a8.3,8.3,0,0,1,.647,1.554c.278,1.181-.913,1.876-1.852,2.221a5.915,5.915,0,0,1-3.118.289.7.7,0,0,1-.616-.747A.689.689,0,0,1,254.6,106.733Z" transform="translate(-224.013 -66.831)"/><path class="k" d="M246.329,98.882c.079,1.264.844,2.26,1.712,2.225s1.508-1.089,1.43-2.353-.844-2.261-1.712-2.225S246.251,97.616,246.329,98.882Z" transform="translate(-225.217 -67.305)"/><path class="k" d="M259.8,98.882c.078,1.264.844,2.26,1.712,2.225s1.508-1.088,1.43-2.353-.844-2.261-1.712-2.225S259.72,97.616,259.8,98.882Z" transform="translate(-223.063 -67.305)"/><path class="u" d="M259.718,111.077a13.279,13.279,0,0,1-6.381-.111,5.8,5.8,0,0,1-3.7-3.307c-.311-.834-1.633-.408-1.32.433a7.119,7.119,0,0,0,4.248,4.064,13.763,13.763,0,0,0,7.217.309.717.717,0,0,0,.661-.727A.7.7,0,0,0,259.718,111.077Z" transform="translate(-224.905 -65.597)"/></g><path class="r" d="M227.843,448.309s2.61,5.089,1.566,17.224h-9.617v-3l-6.955,3H177.868s-1.435-4.828,11.091-4.306l24.054-15.4h14.569Z" transform="translate(-177.818 -2.8)"/><path class="r" d="M267.956,448.309s-2.61,5.089-1.566,17.224h9.617v-3l6.955,3h34.969s1.435-4.828-11.091-4.306l-24.054-15.4H268.217Z" transform="translate(-163.693 -2.8)"/><g transform="translate(28.338 73.676)"><path class="a" d="M305.456,233.5V351.818l-.776,9.038L293,496.746l-15.03-.2s-12.23-92.768-5.058-140.252c.4-2.642.854-5.137,1.383-7.464L270.4,277.217h-9.848l-13.4,82.312-22.9,140.68H207.349l4.665-144.153.3-9.207s2.99-88.057,23.371-118.882L202.249,152.2,247.2,127.4l15.51,5.319,14.64-5.319,20.015,8.826Z" transform="translate(-202.249 -127.398)"/><path class="o" d="M305.456,233.5V351.818l-.776,9.038a57.807,57.807,0,0,1-31.769-4.564,48.471,48.471,0,0,1-7.993-4.351,45.245,45.245,0,0,1-17.762,7.588c-14.311,2.81-28.172-.966-35.142-3.473l.3-9.207s2.99-88.057,23.371-118.882L202.249,152.2,247.2,127.4l15.51,5.319,14.64-5.319,20.015,8.826Z" transform="translate(-202.249 -127.398)"/><path class="q" d="M265.96,191.247l-27.738.277a.66.66,0,0,0,0,1.32l27.738-.277A.66.66,0,0,0,265.96,191.247Z" transform="translate(-196.598 -117.188)"/><g transform="translate(34.286 48.287)"><path class="q" d="M255.905,175.118h-23.2a1.306,1.306,0,0,0-.9,1.029v6.665a.694.694,0,0,0,.437.669.7.7,0,0,0,.72.616h22.171a.7.7,0,0,0,.456-.165.73.73,0,0,0,.829-.737v-6.741A.779.779,0,0,0,255.905,175.118Zm-1.029,7.434H233.353v-5.889h21.523Z" transform="translate(-231.808 -168.054)"/><g transform="translate(4.388)"><path class="r" d="M1.468,0h1.08A1.468,1.468,0,0,1,4.016,1.468v5.6a0,0,0,0,1,0,0H0a0,0,0,0,1,0,0v-5.6A1.468,1.468,0,0,1,1.468,0Z"/><path class="a" d="M1.468,0h1.08A1.468,1.468,0,0,1,4.016,1.468v5.6a0,0,0,0,1,0,0H0a0,0,0,0,1,0,0v-5.6A1.468,1.468,0,0,1,1.468,0Z" transform="translate(4.016)"/><path class="r" d="M1.468,0H2.547A1.468,1.468,0,0,1,4.015,1.468v5.6a0,0,0,0,1,0,0H0a0,0,0,0,1,0,0v-5.6A1.468,1.468,0,0,1,1.468,0Z" transform="translate(8.031)"/><path class="a" d="M1.468,0H2.548A1.468,1.468,0,0,1,4.016,1.468v5.6a0,0,0,0,1,0,0H0a0,0,0,0,1,0,0v-5.6A1.468,1.468,0,0,1,1.468,0Z" transform="translate(12.047)"/></g></g></g><path class="q" d="M275.84,232.571c-.406-15.7-2.3-31.437-6.66-46.558q-3.047-10.568-7.049-20.831-2.255-5.775-4.8-11.43a1.133,1.133,0,0,0-1.538-.4,1.153,1.153,0,0,0-.4,1.538,240.747,240.747,0,0,1,14.11,40.974c4.785,19.411,4.786,40.14,3.831,60q-.037.771-.078,1.543-.752,14.2-2.778,28.294t-5.339,27.956q-3.314,13.914-7.891,27.485-.558,1.653-1.136,3.3c-.478,1.368,1.692,1.957,2.168.6q4.722-13.5,8.2-27.395,3.468-13.875,5.667-28.028t3.136-28.459Q276.207,246.888,275.84,232.571Z" transform="translate(-165.434 -49.595)"/><path class="o" d="M202.587,148.783c-2.815,3.651-3.451,10.7-.608,23.155C205.3,186.5,210.98,241,228.258,241c0,0,17.969,3.266,61.238-32.169l-11.18-12.267-43.65,13.387-5.747-26.122a39.14,39.14,0,0,0-10.552-19.27Z" transform="translate(-174.249 -50.302)"/><path class="o" d="M261.825,224.525s48.564,8.347,52.957-10.461a9.5,9.5,0,0,0,.106-3.359c-.872-6.848-5.029-36.737-14.369-64.753,0,0-2.005-6.236-12.684-10.944l3.918,66.52Z" transform="translate(-164.384 -52.505)"/><path class="t" d="M269.395,192.654l9.025,9.9,12.122-9.511C280.006,182.042,269.395,192.654,269.395,192.654Z" transform="translate(-163.174 -44.022)"/><path class="q" d="M300.172,196.587a12.377,12.377,0,0,0-11.415-3.313,19.368,19.368,0,0,1,10.2-9.523c.666-.262.376-1.35-.3-1.085a20.49,20.49,0,0,0-11.266,10.849.584.584,0,0,0-.036.167l-.03.01c-.673.248-.382,1.335.3,1.083a11.224,11.224,0,0,1,11.755,2.605C299.885,197.9,300.68,197.1,300.172,196.587Z" transform="translate(-160.367 -44.89)"/><g transform="translate(31.826 98.494)"><path class="q" d="M235.515,207.731c-2.422-9.077-4.8-18.17-7.273-27.232a61.47,61.47,0,0,0-4.132-11.567,33.02,33.02,0,0,0-7.224-9.393,89.538,89.538,0,0,0-10.808-8.112c-.6-.4-1.165.568-.567.971,6.508,4.383,13.186,8.988,17.06,16.023a53.361,53.361,0,0,1,4.358,11.545c1.191,4.275,2.3,8.574,3.445,12.862q2.029,7.6,4.056,15.2A.563.563,0,0,0,235.515,207.731Z" transform="translate(-205.256 -148.389)"/><path class="t" d="M231.985,190.936s-11.65-1.492-15.58-3.341a1.607,1.607,0,0,0-2.168.755c-.256.617-.2,1.484.744,2.634a6.547,6.547,0,0,0,2.974,1.992l2.871.981S230.325,196.134,231.985,190.936Z" transform="translate(-203.841 -142.615)"/><path class="t" d="M242.147,192.208l3.235,7.355-11.946,3.408s-12.3,10.806-19.677,9.551a1.321,1.321,0,0,1-.523-2.236,9.739,9.739,0,0,1,1.146-.909,3.956,3.956,0,0,1-2.543,1.464.764.764,0,0,1-.638-1.21l1.427-1.981a4.576,4.576,0,0,1-2.36,1.308.759.759,0,0,1-.661-1.163c1.528-2.438,7.145-10.955,14.038-15.949C223.646,191.845,227.916,188.313,242.147,192.208Z" transform="translate(-204.579 -142.145)"/><path class="q" d="M270.794,189.788l-26.155,9.241a.66.66,0,0,0,.427,1.248l26.156-9.241A.66.66,0,0,0,270.794,189.788Z" transform="translate(-199.027 -142.246)"/><path class="v" d="M222.967,199.01l-10.33,9.417c-.531.484.162,1.369.7.88l10.33-9.417C224.2,199.405,223.5,198.52,222.967,199.01Z" transform="translate(-204.107 -140.787)"/><path class="v" d="M221.458,196.187a116.753,116.753,0,0,0-10.3,11.083c-.458.563.443,1.235.9.675a114.691,114.691,0,0,1,10.1-10.878C222.68,196.574,221.986,195.689,221.458,196.187Z" transform="translate(-204.332 -141.239)"/><path class="q" d="M300.954,214.079a102.8,102.8,0,0,1-32.592-.529.537.537,0,0,0-.115,0q2.124-1.535,4.219-3.1,6.264-4.68,12.224-9.748c.552-.47-.246-1.261-.795-.8a246.059,246.059,0,0,1-21.847,16.566c-7.478,5.038-15.247,10.015-23.822,12.966a43.5,43.5,0,0,1-15.327,2.539.562.562,0,0,0,0,1.124c9.3.256,18.237-2.989,26.313-7.365a174.123,174.123,0,0,0,18.494-11.8.478.478,0,0,0,.358.69,104.535,104.535,0,0,0,33.19.528C301.967,215.059,301.663,213.975,300.954,214.079Z" transform="translate(-202.522 -140.642)"/><path class="q" d="M286.055,160.061q-.24-5.361-.4-10.725c-.022-.721-1.146-.725-1.124,0q.572,19.017,2.128,37.985.44,5.348.958,10.69c.07.713,1.195.72,1.125,0Q286.907,179.075,286.055,160.061Z" transform="translate(-192.579 -148.794)"/></g><g transform="translate(77.139 73.428)"><path class="r" d="M248.181,139.793l7.18-8.265,6.745,6.9L255.144,152.6Z" transform="translate(-243.705 -126.489)"/><path class="p" d="M267.634,127.184h-3.968l-7.688,5.039-7.688-5.039h-3.968l4.227,14.733,7.429-9.166,7.429,9.166Z" transform="translate(-244.322 -127.184)"/></g><path class="o" d="M263.221,133.344l-.009.5-6.728,18.215-7.452-18.215-.007-.329a10.178,10.178,0,0,0-7.977-9.729l-.614-.136v8.081l5.442,22.131H266.06l4.913-22.131v-8.081h0A10.177,10.177,0,0,0,263.221,133.344Z" transform="translate(-167.805 -54.321)"/><path class="k" d="M270.889,73.308a24.282,24.282,0,0,0-18.668-4.293c-12.341,2.4-20.644,14.439-20.8,26.635,0,.455,0,.909.022,1.364a18.653,18.653,0,0,0,3.122,9.811,7.988,7.988,0,0,0,3.47,3.024,4.1,4.1,0,0,0,4.353-.7c1.453-1.475,1.152-3.946.289-5.83s-2.185-3.6-2.547-5.642c-.506-2.858,1.06-5.786,3.328-7.6,1.88-1.5,4.727-2.318,6.629-.848a11.4,11.4,0,0,1,1.918,2.378,3.423,3.423,0,0,0,2.489,1.6,3.365,3.365,0,0,0,2.743-2.127,14.919,14.919,0,0,1,1.68-3.237,4.141,4.141,0,0,1,6.345.527c1.017,1.659.813,4.039,2.32,5.271,1.466,1.2,3.778.628,5.363,1.663a4.306,4.306,0,0,1,1.634,3.878,19.965,19.965,0,0,1-1.017,4.278,7.371,7.371,0,0,0-.189,4.335,3.2,3.2,0,0,0,3.332,2.287c1.827-.338,2.585-2.5,2.938-4.325A49.636,49.636,0,0,0,280.6,91.9a27.956,27.956,0,0,0-4.372-13.078A22.189,22.189,0,0,0,270.889,73.308Z" transform="translate(-169.246 -63.123)"/><g transform="translate(47.557 73.443)"><path class="i" d="M279.6,133.437a30.292,30.292,0,0,0-12.837-6.24v1.277a28.36,28.36,0,0,1,13.243,6.991c4.57,4.422,7.247,10.932,6.08,17.3-.147.775,1.032,1.107,1.18.332C288.63,145.673,285.264,138.2,279.6,133.437Z" transform="translate(-211.151 -127.197)"/><g transform="translate(66.471 24.895)"><path class="k" d="M276.125,155.514V177.8a.546.546,0,0,0,.3.506l.014.013,4.582,3.281h0a.444.444,0,0,0,.071.079,1.384,1.384,0,0,0,.008,1.011,2.318,2.318,0,0,0,.778,1.015,1.775,1.775,0,0,0,2.173.046,1.159,1.159,0,0,0,.322-1.275,3.428,3.428,0,0,0-.726-1.068,2.681,2.681,0,0,0-1.039-.723,1.684,1.684,0,0,0-.865-.075l-4.388-3.142V155.753l8.15-5.917c.634-.46.021-1.526-.621-1.061l-8.268,6a.614.614,0,0,0-.194.231A.546.546,0,0,0,276.125,155.514Z" transform="translate(-276.125 -148.66)"/><path class="k" d="M292.939,155.011a.614.614,0,0,0-.194-.231l-8.269-6c-.64-.465-1.254.6-.619,1.061l8.15,5.917v21.712l-4.388,3.142a1.684,1.684,0,0,0-.865.075,2.673,2.673,0,0,0-1.039.723,3.452,3.452,0,0,0-.727,1.068,1.159,1.159,0,0,0,.324,1.275,1.773,1.773,0,0,0,2.171-.046,2.312,2.312,0,0,0,.779-1.015,1.384,1.384,0,0,0,.008-1.011.557.557,0,0,0,.071-.079h0l4.582-3.281.014-.013a.547.547,0,0,0,.3-.506V155.514A.546.546,0,0,0,292.939,155.011Z" transform="translate(-274.931 -148.66)"/></g><path class="r" d="M221.527,172.053c-.09.829,1.205.829,1.3,0,.92-8.273-.61-16.869,1.893-24.946a26.828,26.828,0,0,1,11.253-14.4,28.479,28.479,0,0,1,7.6-3.383v-1.349a29.877,29.877,0,0,0-9.673,4.577,27.982,27.982,0,0,0-10.9,15.935C221.138,156.208,222.4,164.221,221.527,172.053Z" transform="translate(-218.386 -127.074)"/><g transform="translate(0 42.613)"><circle class="k" cx="3.657" cy="3.657" r="3.657"/><circle class="r" cx="2.586" cy="2.586" r="2.586" transform="translate(1.071 1.071)"/></g></g><path class="q" d="M240.129,127.927q-.077,5.629-.152,11.257a.58.58,0,0,0,1.16,0q.075-5.628.152-11.257A.58.58,0,0,0,240.129,127.927Z" transform="translate(-167.878 -53.727)"/><path class="q" d="M265.826,126.766q-.075,5.63-.152,11.258a.58.58,0,0,0,1.16,0q.077-5.628.152-11.258A.58.58,0,0,0,265.826,126.766Z" transform="translate(-163.769 -53.912)"/></g><g transform="translate(382.967 90.369)"><path class="k" d="M443.616,193.5c-3.328-2.346-7.7-1.345-11.212-3.277-4.684-2.574-6.29-10.741-3.049-15.5,2.124-3.117,5.718-4.623,7.44-8.07a11.174,11.174,0,0,0,.042-9.055,12.87,12.87,0,0,0-5.805-6.223c-2.314-1.236-5.13-2.043-6.29-4.713-1.371-3.154.438-6.926,2.487-9.515s4.557-5.179,4.84-8.709c.268-3.353-1.622-6.425-3.763-8.645s-4.655-4-6.373-6.689l-.051-.08a15.759,15.759,0,0,0-15.157-7.514l-37.044,4.362c1.945,3.415.842,8.151-1.144,11.533s-4.754,6.085-6.493,9.652c-3.052,6.258-2.227,14.823,1.937,20.108,1.025,1.3,2.3,2.6,2.417,4.372a4.724,4.724,0,0,1-3.466,4.533c-1.812.558-3.738.331-5.571.782a9.933,9.933,0,0,0-6.736,7.111,12.431,12.431,0,0,0,1.842,10.454c2.012,2.665,5.39,4.766,5.192,8.333-.158,2.844-2.568,4.6-4.259,6.631-4.52,5.428-4.151,14.854-.347,21s10.221,9.384,16.591,10.52,12.857.457,19.3.312c8.426-.19,16.864.542,25.279-.008s16.958-2.468,24.217-7.535c3.66-2.555,7.065-6.1,8.5-10.831S447.268,196.077,443.616,193.5Z" transform="translate(-333.347 -83.727)"/><path class="a" d="M432.855,361.46c-5.243,36.618-12.991,75.789-19.753,113.962l-9.859-.046-1.079-116.432-.858-92.561h-8.4l-.893,101.585-.963,109.786-13.443.464c-4.79-41.165-10.113-83.467-13.559-121.745-6-66.359-6.345-120.631,11.46-135.954l46.049-5.394C443.514,245.178,441.729,299.671,432.855,361.46Z" transform="translate(-331.71 -66.183)"/><path class="o" d="M436.39,360.8c-8.177,1.949-26.926-.326-33.944-1.857-2.25-.487-3.629-.835-3.629-.835l-1.486,10a38.133,38.133,0,0,1-5.034-.139c-12.249-1.1-25.511-8.839-30.789-12.747-6-66.359-3.522-119.378,14.283-134.7l46.049-5.394C443.8,245.178,445.263,299.011,436.39,360.8Z" transform="translate(-331.992 -66.183)"/><path class="r" d="M424.087,466.117H399.16a3.957,3.957,0,0,1-3.921-3.364c-.812-5.521-1.728-16.459,2.563-22.189l-.035-1.021,9.894-.336-.035.383,9.349,20.635S423.831,459.737,424.087,466.117Z" transform="translate(-326.239 -30.349)"/><path class="r" d="M394.059,465.743h-5.974v-8.282a.957.957,0,0,0-1.867-.29c-1.937,5.591-5.916,8.769-11.82,8.572H350.156a1.726,1.726,0,0,1-.951-3.167c10.335-3.016,25.878-12.979,30.309-20.565l13.443-.464-.36,1.334C394.059,446.337,396.1,455.315,394.059,465.743Z" transform="translate(-333.616 -29.974)"/><g transform="translate(0 69.86)"><path class="o" d="M377.156,220.1l-16.714,32.675L347.4,245.155l9.221-31.132c-1.066-15.818,2.961-40.6,5.507-54.2A16.875,16.875,0,0,1,373.3,146.945h0Z" transform="translate(-333.779 -146.945)"/><path class="t" d="M356.857,249.907,344.4,274.265c1.427,9.407,1.415,14.279,1,16.807a1.122,1.122,0,0,1-2.192.1l-1.891-7.168-1.021,10.52a26.052,26.052,0,0,1,6.148,6.275,1.125,1.125,0,0,1-1.4,1.635c-1.113-.476-2.181-.963-3.178-1.427a10.759,10.759,0,0,1-6.171-10.532l1.264-17.248,9.129-30.819,3.2-10.8,13.037,7.621Z" transform="translate(-335.658 -133.405)"/><path class="p" d="M364.11,241.114,357.7,251.5s-.742-.545-1.9-1.38c-2.7-1.937-7.679-5.486-10.776-7.493a10.071,10.071,0,0,0-2.714-1.508l3.341-10.8,2.575,1.508,13.037,7.621Z" transform="translate(-334.595 -133.613)"/></g><path class="o" d="M400.066,141.818s-15.68-.989-30.332,6.137a18.362,18.362,0,0,0-9.478,21.82h0a13.06,13.06,0,0,1,.255,6.57l-1.292,5.91a14.469,14.469,0,0,0,2.588,11.81l5.083,6.731,8.847,31.456,35.388-3.932c11.6-24.777,22.839-46.871,27.522-72.249C438.648,156.071,424.395,143.047,400.066,141.818Z" transform="translate(-331.943 -77.913)"/><path class="q" d="M395.852,308.161q-1.326-26.49-4.608-52.833-1.8-14.429-4.184-28.777A.5.5,0,0,0,387.3,226a219.209,219.209,0,0,0-8.677-32.761.5.5,0,0,0-.222-.523,9.471,9.471,0,0,1-3.585-10.569c.235-.706-.84-1.141-1.076-.433a10.656,10.656,0,0,0,3.78,11.791.578.578,0,0,0,.019.138,217.064,217.064,0,0,1,8.5,31.934.582.582,0,0,0-.209.556q4.378,26.227,6.8,52.727,2.4,26.272,2.856,52.672.257,14.827-.1,29.658a.58.58,0,0,0,1.16,0Q397.173,334.676,395.852,308.161Z" transform="translate(-329.651 -71.583)"/><g transform="translate(39.128 4.503)"><path class="t" d="M397.963,124.866v37.261l-16.712,10.906V124.866Z" transform="translate(-367.495 -85.119)"/><path class="w" d="M397.963,124.866v5.445c-1.492,6.966-5.6,15.757-16.712,17.263V124.866Z" transform="translate(-367.495 -85.119)"/><path class="t" d="M369.84,119.758c.306-2.762.6-5.51.7-8.285.15-3.98,2.413-8.027,4.67-11.417A21.831,21.831,0,0,1,380.5,94.43,22.324,22.324,0,0,1,400.792,92c8.9,3.512,9.978,12.409,7.738,20.467,5.6-2.917,6.006,4.309,6.006,4.309.4,7.227-6.663,7.342-6.663,7.342a26.352,26.352,0,0,1-6.54,11.257,35.117,35.117,0,0,1-11.373,7.682,14.3,14.3,0,0,1-17.138-5.522,22.764,22.764,0,0,1-3.262-15.246Q369.7,121.021,369.84,119.758Z" transform="translate(-369.391 -90.599)"/><path class="w" d="M376.968,122.722a7.826,7.826,0,0,1,1.065-1.477,11,11,0,0,0,1.1-1.726,11.478,11.478,0,0,0,1.184-3.863.714.714,0,0,1,.813-.538.656.656,0,0,1,.5.792,12.741,12.741,0,0,1-2.621,6.226c-.545.7-1.334,1.444-.612,2.258s2.012.646,3.01.554c.868-.08.911,1.271.044,1.351a5.081,5.081,0,0,1-3.74-.658A2.408,2.408,0,0,1,376.968,122.722Z" transform="translate(-368.215 -86.679)"/><path class="k" d="M389.027,116.8c-.213,1.243-1.071,2.177-1.915,2.089s-1.355-1.169-1.141-2.413,1.071-2.178,1.915-2.089S389.24,115.558,389.027,116.8Z" transform="translate(-366.748 -86.795)"/><path class="k" d="M377.523,116.35c-.213,1.242-1.071,2.177-1.915,2.088s-1.355-1.168-1.141-2.411,1.071-2.178,1.915-2.09S377.736,115.106,377.523,116.35Z" transform="translate(-368.587 -86.868)"/><path class="k" d="M377.554,108.375a1.5,1.5,0,0,0-.878-.126,4.3,4.3,0,0,0-3.622,3.881,2.25,2.25,0,0,1,.478-.755c.013-.012.027-.016.039-.027a1.978,1.978,0,0,1,.383-.356,4.231,4.231,0,0,1,1.808-.578,6.253,6.253,0,0,0,1.863-.451.79.79,0,0,0,.52-.749A1.124,1.124,0,0,0,377.554,108.375Z" transform="translate(-368.805 -87.779)"/><path class="k" d="M386.986,108.278a1.593,1.593,0,0,1,.863-.273,3.805,3.805,0,0,1,3.882,3.247,1.954,1.954,0,0,0-.529-.669c-.014-.01-.028-.012-.042-.021a1.724,1.724,0,0,0-.407-.289,3.957,3.957,0,0,0-1.839-.27,5.982,5.982,0,0,1-1.884-.135.7.7,0,0,1-.572-.658A1.272,1.272,0,0,1,386.986,108.278Z" transform="translate(-366.662 -87.817)"/><path class="w" d="M389.473,124.778a9.538,9.538,0,0,1-8.327,2.879.684.684,0,0,0-.238,1.344,10.989,10.989,0,0,0,9.6-3.407C391.12,124.945,390.08,124.133,389.473,124.778Z" transform="translate(-367.634 -85.171)"/></g><g transform="translate(35.567 63.731)"><path class="p" d="M383.638,142.841l3.473,21.608-16.3,24.581c-3.233-3.526-4.731-11.584-4.456-16.41l10.723-3.741c-4.982-3.721-6.215-10.633-7.195-19.069Z" transform="translate(-366.321 -141.472)"/><path class="p" d="M370.191,189.09c11.211.108,18.25-3.975,27.038-9.869l-2.464-8.071c8.5,1.5,16.961-8.285,22.449-15.148l-17.482-14.341Z" transform="translate(-365.703 -141.661)"/><path class="o" d="M385.3,161.666a193.124,193.124,0,0,1-15.067,23.253c-.45.6.557,1.174,1,.585A193.022,193.022,0,0,0,386.3,162.252C386.659,161.6,385.658,161.012,385.3,161.666Z" transform="translate(-365.715 -138.508)"/></g><g transform="translate(52.9 124.362)"><path class="q" d="M387.814,212.36a.985.985,0,0,0-.28-.108c-1.5-.329-.854,2.387-.582,3.054a.957.957,0,0,0,.342.481.664.664,0,0,0,.651-.009,1.25,1.25,0,0,0,.464-.487,2.336,2.336,0,0,0-.1-2.464A1.543,1.543,0,0,0,387.814,212.36Z" transform="translate(-380.415 -191.008)"/><path class="q" d="M386.179,205.766a1,1,0,0,0-.28-.109c-1.5-.328-.855,2.388-.583,3.054a.95.95,0,0,0,.343.483.667.667,0,0,0,.651-.009,1.254,1.254,0,0,0,.464-.488,2.341,2.341,0,0,0-.1-2.464A1.539,1.539,0,0,0,386.179,205.766Z" transform="translate(-380.677 -192.063)"/><path class="q" d="M384.34,200.083a1.036,1.036,0,0,0-.28-.108c-1.5-.328-.855,2.388-.583,3.054a.95.95,0,0,0,.343.483.667.667,0,0,0,.651-.009,1.262,1.262,0,0,0,.464-.488,2.342,2.342,0,0,0-.1-2.464A1.568,1.568,0,0,0,384.34,200.083Z" transform="translate(-380.971 -192.972)"/><path class="q" d="M382.5,194.07a1,1,0,0,0-.281-.109c-1.5-.328-.854,2.388-.582,3.054a.955.955,0,0,0,.342.483.666.666,0,0,0,.652-.009A1.243,1.243,0,0,0,383.1,197a2.339,2.339,0,0,0-.1-2.464A1.564,1.564,0,0,0,382.5,194.07Z" transform="translate(-381.265 -193.933)"/></g><path class="q" d="M376.538,228.661c-2.662-9.635-5.251-19.294-7.992-28.907a19.172,19.172,0,0,0-2.541-5.9,44.436,44.436,0,0,0-3.568-4.12,12.475,12.475,0,0,1-2.952-4.584,10.476,10.476,0,0,1,.093-5.484c.941-3.947,3.022-8.007,1.738-12.121-.222-.711-1.341-.407-1.118.307,1.141,3.66-.654,7.378-1.58,10.878a13.951,13.951,0,0,0-.539,5.35,10.03,10.03,0,0,0,2.095,4.757c1.1,1.446,2.408,2.707,3.6,4.07a15.549,15.549,0,0,1,3.118,5.409c.766,2.276,1.333,4.626,1.972,6.939q1,3.628,2.005,7.254,2.274,8.231,4.549,16.463A.58.58,0,0,0,376.538,228.661Z" transform="translate(-332.085 -73.856)"/><g transform="translate(36.728 171.688)"><path class="q" d="M378.5,239.858a27.863,27.863,0,0,1-8.572-4.992c-.57-.484-1.213.483-.651.962a28.8,28.8,0,0,0,8.841,5.127A.581.581,0,0,0,378.5,239.858Z" transform="translate(-367.045 -234.734)"/><path class="q" d="M377.3,261.19l-.059-.013q-.1-4.731-.191-9.46c-.014-.741-1.171-.824-1.156-.077l.187,9.285a55.455,55.455,0,0,0-7.178-1.06,43.118,43.118,0,0,1,.367-14.265,19.943,19.943,0,0,0,7.408,2.552.6.6,0,0,0,.529.48.594.594,0,0,0,.616-.54q.44-2.286.879-4.571a.583.583,0,0,0-.541-.616.593.593,0,0,0-.617.541l-.686,3.564A18.7,18.7,0,0,1,368.837,244l.608-6.49a.58.58,0,0,0-1.158-.077l-.646,6.9a.522.522,0,0,0,.48.585c.03.02.063.035.093.055a44.744,44.744,0,0,0-.425,15.334.488.488,0,0,0,.455.443.526.526,0,0,0,.427.254,53.825,53.825,0,0,1,7.487,1.115.617.617,0,0,0,.965.171C377.7,262.235,377.949,261.344,377.3,261.19Z" transform="translate(-367.322 -234.385)"/><g transform="translate(49.251)"><path class="q" d="M410.156,239.858a27.876,27.876,0,0,0,8.572-4.992c.568-.484,1.213.483.65.962a28.767,28.767,0,0,1-8.841,5.127A.58.58,0,0,1,410.156,239.858Z" transform="translate(-409.783 -234.734)"/><path class="q" d="M411.57,261.19l.06-.013q.1-4.731.19-9.46c.015-.741,1.173-.824,1.158-.077q-.094,4.642-.187,9.285a55.457,55.457,0,0,1,7.178-1.06A43.15,43.15,0,0,0,419.6,245.6a19.942,19.942,0,0,1-7.408,2.552.606.606,0,0,1-.529.48.594.594,0,0,1-.616-.54q-.44-2.286-.879-4.571a.583.583,0,0,1,.541-.616.593.593,0,0,1,.617.541l.685,3.564A18.693,18.693,0,0,0,420.03,244l-.607-6.49a.58.58,0,0,1,1.156-.077l.646,6.9a.52.52,0,0,1-.479.585c-.03.02-.063.035-.093.055a44.773,44.773,0,0,1,.425,15.334.489.489,0,0,1-.455.443.526.526,0,0,1-.427.254,53.825,53.825,0,0,0-7.487,1.115.618.618,0,0,1-.966.171C411.166,262.235,410.918,261.344,411.57,261.19Z" transform="translate(-409.722 -234.385)"/></g></g><g transform="translate(49.618 103.219)"><path class="r" d="M457.158,235.313l-45.167,21.076-33.556-59.422,9.813-4.7,25.506-12.237,9.013-4.326Z" transform="translate(-378.435 -175.705)"/><path class="c" d="M414.489,186.858a14.219,14.219,0,0,1-27.594,4.814L412.4,179.435A14.156,14.156,0,0,1,414.489,186.858Z" transform="translate(-377.082 -175.109)"/></g><path class="t" d="M463.376,218.378a11.618,11.618,0,0,1-4.874,2.3l-44.729,10.747-.29.065-5.27,1.274-5.3-10.977,7.336-2.756.53-.2,33.133-12.41.049-.016-26.508-30.082,11.124-24.211,6,5.537,31.087,44.977A11.67,11.67,0,0,1,463.376,218.378Z" transform="translate(-324.902 -76.259)"/><path class="n" d="M413.484,222.266l-5.27,1.274-5.3-10.977,7.336-2.756A17.454,17.454,0,0,1,413.484,222.266Z" transform="translate(-324.902 -67.033)"/><g transform="translate(64.197 144.063)"><path class="t" d="M411.574,220.738a1.984,1.984,0,0,0-1.832-3.435,1.762,1.762,0,0,0,.929-1.953c-.157-.633-1.342-1.2-1.976-1.328.125-.977.4-1.945-.407-2.527a3.68,3.68,0,0,0-2.969-.457,10.93,10.93,0,0,0-2.823,1.247c-3.364,1.885-6.73,3.771-9.96,5.876a4.1,4.1,0,0,0-1.248,1.087,1.437,1.437,0,0,0-.088,1.567,1.788,1.788,0,0,0,1.909.444,1.658,1.658,0,0,0-.919,2.025,1.63,1.63,0,0,0,1.651.924,1.406,1.406,0,0,0-.362,1.339,1.93,1.93,0,0,0,1.961,1.217,3.274,3.274,0,0,0,1.764-.717,1.479,1.479,0,0,0,.208,1.721,3.47,3.47,0,0,0,2.276.8,17.685,17.685,0,0,0,11.041-2.34A4.971,4.971,0,0,0,413,223.581,2.276,2.276,0,0,0,411.574,220.738Z" transform="translate(-391.004 -210.918)"/><path class="w" d="M403.272,214.777q-5.352,2.987-10.809,5.784c-.4.205-.136.857.269.651q5.455-2.8,10.809-5.786C403.93,215.21,403.667,214.556,403.272,214.777Z" transform="translate(-390.803 -210.308)"/><path class="w" d="M405,217.223a70.581,70.581,0,0,1-11.635,5.8.352.352,0,0,0,.268.65,71.393,71.393,0,0,0,11.792-5.889C405.806,217.545,405.379,216.986,405,217.223Z" transform="translate(-390.661 -209.919)"/><path class="w" d="M405.773,220.3a29.637,29.637,0,0,1-9.478,4.035c-.436.1-.35.8.093.7a30.6,30.6,0,0,0,9.809-4.171C406.577,220.616,406.15,220.055,405.773,220.3Z" transform="translate(-390.204 -209.427)"/></g><path class="o" d="M461.377,218.375c-3.551-6.8-12.676-10.257-19.468-11.946l.056-.024-26.511-30.079,11.124-24.209,6.007,5.533,31.085,44.984A11.67,11.67,0,0,1,461.377,218.375Z" transform="translate(-322.897 -76.258)"/><path class="q" d="M423.641,181.491l-12.43-12.968c-.517-.539-1.336.282-.82.821l12.43,12.967C423.339,182.852,424.159,182.03,423.641,181.491Z" transform="translate(-323.733 -73.663)"/><path class="p" d="M438.065,197l-6.349,4.585s15.13,7.965,13.389,15.172l16.306-5.945S463.473,200.511,438.065,197Z" transform="translate(-320.297 -69.081)"/><path class="k" d="M416.419,97.145C412.2,90.368,404,86.635,396.02,86.718s-15.66,3.617-21.811,8.7c-3.7,3.06-7.086,7.017-7.657,11.787-.673,5.622,2.693,11.108,2.2,16.749-.275,3.143-1.726,6.047-2.57,9.087s-.967,6.617,1.075,9.021c1.87,2.2,5.206,2.984,6.555,5.537,1.725,3.267-.811,7.18-.592,10.867a7.551,7.551,0,0,0,7.934,6.794c-2.35-1.631-2.594-5.019-2.1-7.838s1.474-5.706.735-8.47c-.806-3.011-3.443-5.1-5.362-7.557-3.334-4.267-4.561-9.881-4.453-15.3s1.444-10.721,2.772-15.972l.168.116a26.988,26.988,0,0,0,23.667-7.769c-2.05,4.2-.083,9.189,2.145,13.294s4.828,8.542,3.963,13.131c-.6,3.185-2.775,5.8-4.491,8.545s-3.04,6.192-1.762,9.169c1.3,3.032,4.875,4.558,6.312,7.528a8.284,8.284,0,0,1-.129,6.76,20.146,20.146,0,0,1-4.027,5.649,18.018,18.018,0,0,0,9.858-4.04,11.648,11.648,0,0,0,4.128-9.568c-.462-4.923-4.585-9.008-4.713-13.95-.122-4.686,3.314-8.578,5.942-12.46a33.1,33.1,0,0,0,5.665-14.388A23.224,23.224,0,0,0,416.419,97.145Z" transform="translate(-330.868 -86.717)"/><g transform="translate(19.591 3.068)"><path class="x" d="M395.348,95.039a25.862,25.862,0,0,1-19.6,9.374.58.58,0,0,0,0,1.16,26.979,26.979,0,0,0,20.42-9.714C396.639,95.287,395.823,94.461,395.348,95.039Z" transform="translate(-348.927 -88.486)"/><path class="x" d="M391.948,93.379a36.59,36.59,0,0,1-15.6,7.588c-.728.158-.42,1.277.309,1.118A37.8,37.8,0,0,0,392.769,94.2C393.343,93.721,392.518,92.9,391.948,93.379Z" transform="translate(-348.809 -88.743)"/><path class="x" d="M400.068,89.365a60.813,60.813,0,0,0-17.913,4.688c-4.995,2.116-10.9,4.738-13.476,9.845a9.817,9.817,0,0,0-.487,8.393c.3.683,1.3.093,1-.585a8.578,8.578,0,0,1,.487-7.224,14.843,14.843,0,0,1,5.424-5.577,49.466,49.466,0,0,1,7.2-3.665,65.184,65.184,0,0,1,8.134-2.892,54.685,54.685,0,0,1,9.63-1.825C400.8,90.455,400.813,89.294,400.068,89.365Z" transform="translate(-350.162 -89.362)"/><path class="x" d="M399.375,146.7a13.129,13.129,0,0,1-2.272-4.284,7.743,7.743,0,0,1,.974-5.559,58.081,58.081,0,0,0,2.834-5.292,14.069,14.069,0,0,0,.771-6.725c-.527-4.806-2.8-9.093-4.325-13.614-1.514-4.485-2.284-10.059.948-14.018.469-.574-.348-1.4-.82-.82-2.653,3.249-3.013,7.629-2.217,11.62.963,4.821,3.489,9.14,4.7,13.888a16.569,16.569,0,0,1,.409,7.419,20.737,20.737,0,0,1-2.759,5.975,11.512,11.512,0,0,0-1.873,5.518,9.13,9.13,0,0,0,1.414,4.642c1.836,3.135,5.264,5.979,5.279,9.876a.58.58,0,0,0,1.16,0C403.582,151.929,401.25,149.306,399.375,146.7Z" transform="translate(-345.776 -88.27)"/><path class="x" d="M406.013,138.044c1.434-3.264,3.286-6.219,3.317-9.9.061-7.55-5.347-13.452-7.32-20.428-1-3.545-1.042-7.555,1.078-10.709.418-.622-.587-1.2-1-.586-4.234,6.3-.626,13.906,2.367,19.85,1.751,3.477,3.52,7.137,3.7,11.1a12.9,12.9,0,0,1-1.025,5.616c-.7,1.689-1.62,3.28-2.327,4.968-1.265,3.025-1.739,6.988.813,9.505.532.524,1.352-.295.82-.82C404.127,144.357,404.847,140.7,406.013,138.044Z" transform="translate(-344.935 -88.276)"/><path class="x" d="M416.595,134.846a12.238,12.238,0,0,0,1.191-4.816c.262-7.412-5.177-13.1-8.416-19.25-1.854-3.519-3.083-7.637-1.957-11.581a.581.581,0,0,0-1.119-.309c-2.132,7.469,3.077,14.048,6.693,20.038,1.921,3.182,3.6,6.7,3.646,10.484a11.221,11.221,0,0,1-1.256,5.29c-.825,1.623-1.891,3.109-2.7,4.741-1.362,2.754-1.932,6.693.7,8.914.567.479,1.392-.338.82-.82-2.465-2.08-1.5-5.732-.176-8.167C414.85,137.846,415.853,136.418,416.595,134.846Z" transform="translate(-344.032 -87.904)"/><path class="x" d="M369.463,121.23a.581.581,0,0,0-1-.586c-4.1,7.265-8.59,15.851-5.141,24.28a12.878,12.878,0,0,0,3.679,5.1c.572.472,1.4-.344.821-.82a13.332,13.332,0,0,1-4.51-9.393,24.271,24.271,0,0,1,2.653-11.973C367.014,125.578,368.237,123.4,369.463,121.23Z" transform="translate(-351.021 -84.405)"/><path class="x" d="M374.543,139.349c-1.371-1.437-3.062-2.581-4.257-4.185-1.155-1.552-1.741-3.7-.463-5.359.455-.592-.552-1.169-1-.586a4.985,4.985,0,0,0-.474,4.861,12.274,12.274,0,0,0,3.54,4.371c1.494,1.332,3.013,2.686,3.7,4.625a7.892,7.892,0,0,1-.152,5.721c-.291.679.708,1.27,1,.586A9.142,9.142,0,0,0,374.543,139.349Z" transform="translate(-350.087 -83.027)"/><path class="x" d="M370.291,141.828c-.709-2.184-2.074-4.054-2.889-6.187-.708-1.851-.946-4.052.333-5.709.456-.59-.552-1.169-1-.586a6.643,6.643,0,0,0-.634,6.073c.752,2.359,2.309,4.362,3.074,6.717C369.4,142.843,370.522,142.54,370.291,141.828Z" transform="translate(-350.451 -83.007)"/><path class="x" d="M359.177,155a11.111,11.111,0,0,0-4.732,13.424c.262.691,1.384.392,1.119-.309a9.955,9.955,0,0,1,4.2-12.113A.581.581,0,0,0,359.177,155Z" transform="translate(-352.357 -78.879)"/><path class="x" d="M357.3,160.744a.6.6,0,0,0-.58-.58.583.583,0,0,0-.58.58,34.865,34.865,0,0,1-.064,9.851c-.111.731,1.007,1.045,1.118.309A35.878,35.878,0,0,0,357.3,160.744Z" transform="translate(-351.985 -78.04)"/><path class="x" d="M354.782,184.335c.284-.689-.837-.989-1.118-.309a15.044,15.044,0,0,0-.01,11.347c.28.681,1.4.383,1.119-.309A14.086,14.086,0,0,1,354.782,184.335Z" transform="translate(-352.548 -74.285)"/><path class="x" d="M403.268,117.416c-.234-.705-1.355-.4-1.118.307a20.378,20.378,0,0,1-.644,14.57c-.3.677.7,1.268,1,.586A21.578,21.578,0,0,0,403.268,117.416Z" transform="translate(-344.727 -84.94)"/><path class="x" d="M411.155,117.854c-.332-.668-1.333-.081-1,.586a15.941,15.941,0,0,1-1.038,15.739c-.415.623.589,1.2,1,.586A17.118,17.118,0,0,0,411.155,117.854Z" transform="translate(-343.517 -84.853)"/></g></g></g></svg>